SplineFontDB: 3.2
FontName: Trinity.Medium
FullName: Trinity.Medium
FamilyName: Trinity
Weight: Medium
Copyright: (c) RISC OS Developments Ltd, released under Apache License 2.0
Version: 1
ItalicAngle: 0
UnderlinePosition: 0
UnderlineWidth: 0
Ascent: 400
Descent: 100
InvalidEm: 0
LayerCount: 2
Layer: 0 0 "Back" 1
Layer: 1 0 "Fore" 0
OS2Version: 0
OS2_WeightWidthSlopeOnly: 0
OS2_UseTypoMetrics: 0
CreationTime: 1622737881
ModificationTime: 1622737882
OS2TypoAscent: 0
OS2TypoAOffset: 1
OS2TypoDescent: 0
OS2TypoDOffset: 1
OS2TypoLinegap: 0
OS2WinAscent: 0
OS2WinAOffset: 1
OS2WinDescent: 0
OS2WinDOffset: 1
HheadAscent: 0
HheadAOffset: 1
HheadDescent: 0
HheadDOffset: 1
OS2Vendor: 'PfEd'
Lookup: 258 0 0 "'kern' Horizontal Kerning in Latin lookup 0" { "'kern' Horizontal Kerning in Latin lookup 0 subtable"  } ['kern' ('latn' <'dflt' > ) ]
DEI: 91125
Encoding: Custom
UnicodeInterp: none
NameList: AGL For New Fonts
DisplaySize: -24
AntiAlias: 1
FitToEm: 0
BeginChars: 480 406

StartChar: exclam
Encoding: 33 33 32
Width: 166
VWidth: 0
Flags: HMW
LayerCount: 2
Fore
SplineSet
104 330 m 0
 114 320 108 271 106 258 c 0
 89 89 l 0
 79 89 l 0
 62 258 l 0
 60 271 54 320 64 330 c 0
 75 341 93 341 104 330 c 0
64 1 m 0
 52 13 52 31 64 43 c 0
 75 54 93 54 104 43 c 0
 116 31 116 13 104 1 c 0
 93 -10 75 -10 64 1 c 0
EndSplineSet
EndChar

StartChar: quoteleft
Encoding: 34 8216 33
Width: 166
VWidth: 0
Flags: HMW
LayerCount: 2
Fore
SplineSet
107 227 m 0
 93 213 73 213 61 225 c 0
 34 252 41 306 102 339 c 0
 107 331 l 0
 89 316 58 294 71 270 c 0
 82 275 95 275 107 263 c 0
 118 252 118 238 107 227 c 0
EndSplineSet
EndChar

StartChar: quoteright
Encoding: 35 8217 34
Width: 166
VWidth: 0
Flags: HMW
LayerCount: 2
Fore
SplineSet
60 292 m 0
 49 303 49 317 60 328 c 0
 74 342 94 342 106 330 c 0
 133 303 126 249 65 216 c 0
 60 224 l 0
 78 239 109 261 96 285 c 0
 85 280 72 280 60 292 c 0
EndSplineSet
EndChar

StartChar: quotedblleft
Encoding: 36 8220 35
Width: 222
VWidth: 0
Flags: HMW
LayerCount: 2
Fore
SplineSet
75 331 m 0
 57 316 26 294 39 270 c 0
 50 275 63 275 75 263 c 0
 86 252 86 238 75 227 c 0
 61 213 41 213 29 225 c 0
 2 252 9 306 70 339 c 0
 75 331 l 0
192 331 m 0
 174 316 143 294 156 270 c 0
 167 275 180 275 192 263 c 0
 203 252 203 238 192 227 c 0
 178 213 158 213 146 225 c 0
 119 252 126 306 187 339 c 0
 192 331 l 0
EndSplineSet
EndChar

StartChar: quotedblright
Encoding: 37 8221 36
Width: 222
VWidth: 0
Flags: HMW
LayerCount: 2
Fore
SplineSet
184 285 m 0
 173 280 160 280 148 292 c 0
 137 303 137 317 148 328 c 0
 162 342 182 342 194 330 c 0
 221 303 214 249 153 216 c 0
 148 224 l 0
 166 239 197 261 184 285 c 0
31 292 m 0
 20 303 20 317 31 328 c 0
 45 342 65 342 77 330 c 0
 104 303 97 249 36 216 c 0
 31 224 l 0
 49 239 80 261 67 285 c 0
 56 280 43 280 31 292 c 0
EndSplineSet
EndChar

StartChar: quotedblbase
Encoding: 38 8222 37
Width: 222
VWidth: 0
Flags: HMW
LayerCount: 2
Fore
SplineSet
148 3 m 0
 137 14 137 29 148 40 c 0
 162 54 182 54 194 42 c 0
 221 15 214 -39 153 -72 c 0
 148 -64 l 0
 166 -49 197 -28 184 -4 c 0
 173 -9 160 -9 148 3 c 0
31 40 m 0
 45 54 65 54 77 42 c 0
 104 15 97 -39 36 -72 c 0
 31 -64 l 0
 49 -49 80 -28 67 -4 c 0
 56 -9 43 -9 31 3 c 0
 20 14 20 29 31 40 c 0
EndSplineSet
EndChar

StartChar: asciitilde
Encoding: 39 126 38
Width: 270
VWidth: 0
Flags: HMW
LayerCount: 2
Fore
SplineSet
7 108 m 0
 52 185 86 170 143 146 c 0
 195 123 210 119 244 171 c 0
 261 151 l 0
 231 90 194 84 135 113 c 0
 83 140 60 145 25 87 c 0
 7 108 l 0
EndSplineSet
EndChar

StartChar: parenleft
Encoding: 40 40 39
Width: 166
VWidth: 0
Flags: HMW
LayerCount: 2
Fore
SplineSet
152 333 m 0
 97 293 69 241 69 129 c 0
 69 16 97 -36 152 -76 c 0
 143 -85 l 0
 76 -42 25 24 25 128 c 0
 25 236 76 299 143 342 c 0
 152 333 l 0
EndSplineSet
EndChar

StartChar: parenright
Encoding: 41 41 40
Width: 166
VWidth: 0
Flags: HMW
LayerCount: 2
Fore
SplineSet
24 -85 m 0
 15 -76 l 0
 70 -36 98 16 98 129 c 0
 98 241 70 293 15 333 c 0
 24 342 l 0
 91 299 142 236 142 128 c 0
 142 24 91 -42 24 -85 c 0
EndSplineSet
EndChar

StartChar: asterisk
Encoding: 42 42 41
Width: 250
VWidth: 0
Flags: HMW
LayerCount: 2
Fore
SplineSet
44 206 m 0
 60 213 81 215 97 225 c 0
 114 236 l 0
 97 246 l 0
 81 256 60 258 44 265 c 0
 18 278 45 313 65 295 c 0
 76 285 87 265 102 255 c 0
 122 241 l 0
 121 270 l 0
 119 303 101 326 111 337 c 0
 120 345 134 345 141 337 c 0
 153 326 133 303 131 270 c 0
 130 241 l 0
 150 255 l 0
 165 265 176 285 187 295 c 0
 207 313 234 278 208 265 c 0
 192 258 171 256 155 246 c 0
 138 236 l 0
 155 225 l 0
 171 215 192 213 208 206 c 0
 234 193 207 158 187 176 c 0
 176 186 165 206 150 216 c 0
 130 231 l 0
 131 207 l 0
 133 174 152 151 142 140 c 0
 133 132 119 132 111 140 c 0
 101 151 119 174 121 207 c 0
 122 230 l 0
 102 216 l 0
 87 206 76 186 65 176 c 0
 45 158 18 193 44 206 c 0
EndSplineSet
EndChar

StartChar: sterling
Encoding: 43 163 42
Width: 250
VWidth: 0
Flags: HMW
LayerCount: 2
Fore
SplineSet
72 35 m 0
 46 53 21 46 21 28 c 0
 21 6 53 -3 72 35 c 0
112 187 m 0
 175 187 l 0
 175 161 l 0
 113 161 l 0
 116 138 113 91 100 56 c 0
 123 47 146 37 170 37 c 0
 189 37 213 45 241 73 c 0
 246 68 l 0
 227 23 201 -7 160 -7 c 0
 131 -7 119 5 89 25 c 0
 71 -14 30 -12 14 4 c 0
 3 15 3 38 15 50 c 0
 31 66 55 66 77 61 c 0
 77 84 72 134 68 161 c 0
 17 161 l 0
 17 187 l 0
 65 187 l 0
 65 221 65 277 99 311 c 0
 133 345 189 345 213 321 c 0
 236 298 226 262 203 262 c 0
 170 262 192 300 178 314 c 0
 164 328 141 328 125 312 c 0
 104 291 105 238 112 187 c 0
EndSplineSet
EndChar

StartChar: comma
Encoding: 44 44 43
Width: 125
VWidth: 0
Flags: HMW
LayerCount: 2
Fore
SplineSet
42 -64 m 0
 61 -47 91 -28 78 -4 c 0
 67 -9 54 -9 42 3 c 0
 31 14 31 29 42 40 c 0
 56 54 76 54 88 42 c 0
 115 15 108 -39 47 -72 c 0
 42 -64 l 0
EndSplineSet
EndChar

StartChar: hyphen
Encoding: 45 45 44
Width: 166
VWidth: 0
Flags: HMW
LayerCount: 2
Fore
SplineSet
145 97 m 0
 22 97 l 0
 22 129 l 0
 145 129 l 0
 145 97 l 0
EndSplineSet
EndChar

StartChar: period
Encoding: 46 46 45
Width: 125
VWidth: 0
Flags: HMW
LayerCount: 2
Fore
SplineSet
83 43 m 0
 95 31 95 13 83 1 c 0
 72 -10 54 -10 43 1 c 0
 31 13 31 31 43 43 c 0
 54 54 72 54 83 43 c 0
EndSplineSet
EndChar

StartChar: zero
Encoding: 48 48 47
Width: 250
VWidth: 0
Flags: HMW
LayerCount: 2
Fore
SplineSet
156 312 m 0
 141 327 107 327 91 312 c 0
 56 276 59 201 59 164 c 0
 59 138 55 57 93 19 c 0
 108 4 142 4 157 19 c 0
 195 57 191 138 191 164 c 0
 191 201 194 276 156 312 c 0
188 312 m 0
 254 248 254 84 189 19 c 0
 154 -16 96 -16 61 19 c 0
 -4 84 -4 248 60 312 c 0
 95 347 153 347 188 312 c 0
EndSplineSet
EndChar

StartChar: one
Encoding: 49 49 48
Width: 250
VWidth: 0
Flags: HMW
LayerCount: 2
Fore
SplineSet
108 248 m 0
 108 296 110 302 56 280 c 0
 56 289 l 0
 85 304 126 326 150 339 c 0
 150 59 l 0
 150 17 156 11 197 11 c 0
 197 0 l 0
 60 0 l 0
 60 11 l 0
 102 11 108 17 108 59 c 0
 108 248 l 0
EndSplineSet
EndChar

StartChar: two
Encoding: 50 50 49
Width: 250
VWidth: 0
Flags: HMW
LayerCount: 2
Fore
SplineSet
18 235 m 0
 23 259 32 288 55 311 c 0
 90 346 150 346 178 318 c 0
 232 264 212 192 161 139 c 0
 64 39 l 0
 184 39 l 0
 195 39 214 39 231 73 c 0
 238 69 l 0
 209 0 l 0
 15 0 l 0
 15 7 l 0
 111 111 l 0
 178 184 181 249 147 283 c 0
 124 306 81 305 59 283 c 0
 43 267 33 248 27 232 c 0
 18 235 l 0
EndSplineSet
EndChar

StartChar: three
Encoding: 51 51 50
Width: 250
VWidth: 0
Flags: HMW
LayerCount: 2
Fore
SplineSet
156 200 m 0
 227 176 234 82 183 30 c 0
 152 0 97 -7 66 -7 c 0
 37 -7 25 3 22 22 c 0
 19 38 48 47 62 33 c 0
 82 13 128 1 158 30 c 0
 185 58 185 118 163 140 c 0
 145 158 114 167 74 163 c 0
 74 170 l 0
 162 190 178 258 144 293 c 0
 127 310 82 309 59 286 c 0
 49 276 40 267 30 248 c 0
 23 250 l 0
 31 272 41 294 56 309 c 0
 93 346 152 346 179 319 c 0
 210 288 205 231 156 200 c 0
EndSplineSet
EndChar

StartChar: four
Encoding: 52 52 51
Width: 250
VWidth: 0
Flags: HMW
LayerCount: 2
Fore
SplineSet
6 117 m 0
 157 338 l 0
 188 338 l 0
 188 117 l 0
 236 117 l 0
 236 83 l 0
 188 83 l 0
 188 0 l 0
 149 0 l 0
 149 83 l 0
 6 83 l 0
 6 117 l 0
149 294 m 0
 28 117 l 0
 149 117 l 0
 149 294 l 0
EndSplineSet
EndChar

StartChar: five
Encoding: 53 53 52
Width: 250
VWidth: 0
Flags: HMW
LayerCount: 2
Fore
SplineSet
51 42 m 0
 86 18 112 -5 149 32 c 0
 181 64 181 130 144 167 c 0
 122 189 86 202 33 206 c 0
 89 331 l 0
 177 331 l 0
 200 331 207 335 212 344 c 0
 218 339 l 0
 196 291 l 0
 93 291 l 0
 73 248 l 0
 114 241 150 231 175 206 c 0
 219 162 219 76 171 28 c 0
 132 -11 57 -15 28 3 c 0
 -1 20 27 58 51 42 c 0
EndSplineSet
EndChar

StartChar: six
Encoding: 54 54 53
Width: 250
VWidth: 0
Flags: HMW
LayerCount: 2
Fore
SplineSet
167 173 m 0
 144 196 97 199 68 168 c 0
 58 129 62 57 90 29 c 0
 114 5 153 5 171 23 c 0
 196 48 196 144 167 173 c 0
224 339 m 0
 226 331 l 0
 186 321 151 310 118 277 c 0
 82 241 80 210 75 192 c 0
 117 220 171 224 207 188 c 0
 244 151 244 65 200 21 c 0
 162 -17 97 -17 53 27 c 0
 4 76 1 206 76 281 c 0
 122 327 170 332 224 339 c 0
EndSplineSet
EndChar

StartChar: seven
Encoding: 55 55 54
Width: 250
VWidth: 0
Flags: HMW
LayerCount: 2
Fore
SplineSet
19 248 m 0
 10 253 l 0
 40 331 l 0
 225 331 l 0
 116 -7 l 0
 86 -7 l 0
 182 291 l 0
 81 291 l 0
 72 291 38 292 19 248 c 0
EndSplineSet
EndChar

StartChar: eight
Encoding: 56 56 55
Width: 250
VWidth: 0
Flags: HMW
LayerCount: 2
Fore
SplineSet
167 23 m 0
 199 55 187 117 106 154 c 0
 56 127 53 54 84 23 c 0
 105 2 146 2 167 23 c 0
131 193 m 0
 188 221 190 282 165 307 c 0
 145 327 104 327 83 306 c 0
 59 282 59 229 131 193 c 0
90 165 m 0
 28 211 12 267 57 312 c 0
 92 347 161 347 198 310 c 0
 231 277 219 217 148 183 c 0
 236 127 234 59 198 23 c 0
 159 -16 86 -16 55 15 c 0
 10 60 16 118 90 165 c 0
EndSplineSet
EndChar

StartChar: nine
Encoding: 57 57 56
Width: 250
VWidth: 0
Flags: HMW
LayerCount: 2
Fore
SplineSet
43 140 m 0
 4 180 4 263 51 310 c 0
 89 348 153 348 192 309 c 0
 245 256 245 126 174 55 c 0
 129 10 81 -3 27 -8 c 0
 25 0 l 0
 51 5 97 24 134 61 c 0
 162 89 174 117 180 144 c 0
 148 113 79 105 43 140 c 0
84 155 m 0
 105 134 157 135 183 166 c 0
 185 195 187 280 159 308 c 0
 136 331 104 331 83 310 c 0
 52 279 52 187 84 155 c 0
EndSplineSet
EndChar

StartChar: colon
Encoding: 58 58 57
Width: 139
VWidth: 0
Flags: HMW
LayerCount: 2
Fore
SplineSet
89 179 m 0
 78 168 60 168 49 179 c 0
 37 191 37 209 49 221 c 0
 60 232 78 232 89 221 c 0
 101 209 101 191 89 179 c 0
89 43 m 0
 101 31 101 13 89 1 c 0
 78 -10 60 -10 49 1 c 0
 37 13 37 31 49 43 c 0
 60 54 78 54 89 43 c 0
EndSplineSet
EndChar

StartChar: semicolon
Encoding: 59 59 58
Width: 139
VWidth: 0
Flags: HMW
LayerCount: 2
Fore
SplineSet
47 -72 m 0
 42 -64 l 0
 60 -49 91 -28 78 -4 c 0
 67 -9 54 -9 42 3 c 0
 31 14 31 29 42 40 c 0
 56 54 76 54 88 42 c 0
 115 15 108 -39 47 -72 c 0
83 179 m 0
 72 168 54 168 43 179 c 0
 31 191 31 209 43 221 c 0
 54 232 72 232 83 221 c 0
 95 209 95 191 83 179 c 0
EndSplineSet
EndChar

StartChar: quotesingle
Encoding: 60 39 59
Width: 90
VWidth: 0
Flags: HMW
LayerCount: 2
Fore
SplineSet
62 337 m 0
 71 328 66 311 64 301 c 0
 51 223 l 0
 40 223 l 0
 27 301 l 0
 25 311 20 328 29 337 c 0
 37 345 54 345 62 337 c 0
EndSplineSet
EndChar

StartChar: equal
Encoding: 61 61 60
Width: 282
VWidth: 0
Flags: HMW
LayerCount: 2
Fore
SplineSet
267 195 m 0
 267 163 l 0
 15 163 l 0
 15 195 l 0
 267 195 l 0
267 66 m 0
 15 66 l 0
 15 98 l 0
 267 98 l 0
 267 66 l 0
EndSplineSet
EndChar

StartChar: quotedbl
Encoding: 62 34 61
Width: 204
VWidth: 0
Flags: HMW
LayerCount: 2
Fore
SplineSet
129 301 m 0
 127 311 122 328 131 337 c 0
 139 345 156 345 164 337 c 0
 173 328 168 311 166 301 c 0
 153 223 l 0
 142 223 l 0
 129 301 l 0
75 301 m 0
 62 223 l 0
 51 223 l 0
 38 301 l 0
 36 311 31 328 40 337 c 0
 48 345 65 345 73 337 c 0
 82 328 77 311 75 301 c 0
EndSplineSet
EndChar

StartChar: question
Encoding: 63 63 62
Width: 222
VWidth: 0
Flags: HMW
LayerCount: 2
Fore
SplineSet
90 1 m 0
 78 13 78 31 90 43 c 0
 101 54 119 54 130 43 c 0
 142 31 142 13 130 1 c 0
 119 -10 101 -10 90 1 c 0
109 83 m 0
 109 121 112 141 126 166 c 0
 156 217 166 281 137 310 c 0
 118 329 84 329 62 307 c 0
 51 296 47 293 64 270 c 0
 78 250 65 230 49 230 c 0
 19 230 16 283 48 315 c 0
 79 346 144 346 178 312 c 0
 207 283 208 225 153 165 c 0
 133 143 119 112 117 83 c 0
 109 83 l 0
EndSplineSet
EndChar

StartChar: acute
Encoding: 64 180 63
Width: 166
VWidth: 0
Flags: HMW
LayerCount: 2
Fore
SplineSet
112 321 m 0
 153 363 181 321 141 298 c 0
 67 254 l 0
 46 254 l 0
 112 321 l 0
EndSplineSet
EndChar

StartChar: A
Encoding: 65 65 64
Width: 361
VWidth: 0
Flags: HMW
LayerCount: 2
Fore
SplineSet
8 11 m 0
 27 12 42 20 52 45 c 0
 176 338 l 0
 189 338 l 0
 304 61 l 0
 322 17 329 12 353 11 c 0
 353 0 l 0
 227 0 l 0
 227 11 l 0
 259 11 269 20 252 61 c 0
 234 107 l 0
 103 107 l 0
 84 62 l 0
 63 13 84 11 108 11 c 0
 108 0 l 0
 8 0 l 0
 8 11 l 0
169 261 m 0
 113 130 l 0
 225 130 l 0
 169 261 l 0
EndSplineSet
EndChar

StartChar: B
Encoding: 66 66 65
Width: 333
VWidth: 0
Flags: HMW
LayerCount: 2
Fore
SplineSet
217 172 m 0
 350 136 293 0 190 0 c 0
 7 0 l 0
 7 11 l 0
 46 11 52 17 52 60 c 0
 52 270 l 0
 52 313 46 320 7 320 c 0
 7 331 l 0
 174 331 l 0
 291 331 322 202 217 172 c 0
168 182 m 0
 256 182 251 308 167 308 c 0
 133 308 l 0
 107 307 103 301 103 261 c 0
 103 182 l 0
 168 182 l 0
103 61 m 0
 103 17 108 25 128 22 c 0
 158 18 206 16 223 42 c 0
 263 105 225 159 168 159 c 0
 103 159 l 0
 103 61 l 0
EndSplineSet
EndChar

StartChar: C
Encoding: 67 67 66
Width: 333
VWidth: 0
Flags: HMW
LayerCount: 2
Fore
SplineSet
319 55 m 0
 250 -31 118 -18 68 33 c 0
 -1 101 -1 222 71 293 c 0
 128 350 208 343 252 327 c 0
 282 315 288 311 300 337 c 0
 313 337 l 0
 317 220 l 0
 303 220 l 0
 279 338 158 331 116 288 c 0
 58 230 56 103 112 48 c 0
 157 1 248 0 310 68 c 0
 319 55 l 0
EndSplineSet
EndChar

StartChar: D
Encoding: 68 68 67
Width: 361
VWidth: 0
Flags: HMW
LayerCount: 2
Fore
SplineSet
143 313 m 0
 106 313 103 310 103 267 c 0
 103 67 l 0
 103 24 107 20 148 21 c 0
 263 21 288 101 288 163 c 0
 288 248 242 313 143 313 c 0
299 281 m 0
 356 224 357 108 299 51 c 0
 265 17 212 0 147 0 c 0
 7 0 l 0
 7 11 l 0
 46 11 52 17 52 60 c 0
 52 271 l 0
 52 314 46 320 7 320 c 0
 7 331 l 0
 166 331 l 0
 208 331 268 313 299 281 c 0
EndSplineSet
EndChar

StartChar: E
Encoding: 69 69 68
Width: 305
VWidth: 0
Flags: HMW
LayerCount: 2
Fore
SplineSet
103 69 m 0
 103 27 108 23 130 23 c 0
 214 23 l 0
 241 23 275 43 287 85 c 0
 302 85 l 0
 280 0 l 0
 7 0 l 0
 7 11 l 0
 46 11 52 17 52 60 c 0
 52 271 l 0
 52 314 46 320 7 320 c 0
 7 331 l 0
 276 331 l 0
 276 256 l 0
 265 256 l 0
 261 293 244 308 218 308 c 0
 130 308 l 0
 108 308 103 304 103 262 c 0
 103 182 l 0
 191 182 l 0
 221 182 240 200 240 230 c 0
 251 230 l 0
 251 111 l 0
 240 111 l 0
 240 140 221 159 191 159 c 0
 103 159 l 0
 103 69 l 0
EndSplineSet
EndChar

StartChar: F
Encoding: 70 70 69
Width: 278
VWidth: 0
Flags: HMW
LayerCount: 2
Fore
SplineSet
227 230 m 0
 238 230 l 0
 238 111 l 0
 227 111 l 0
 227 140 208 159 178 159 c 0
 103 159 l 0
 103 60 l 0
 103 17 109 11 148 11 c 0
 148 0 l 0
 6 0 l 0
 6 11 l 0
 46 11 52 17 52 60 c 0
 52 271 l 0
 52 314 46 320 7 320 c 0
 7 331 l 0
 272 331 l 0
 272 256 l 0
 260 256 l 0
 256 293 239 308 213 308 c 0
 130 308 l 0
 108 308 103 304 103 262 c 0
 103 182 l 0
 178 182 l 0
 208 182 227 200 227 230 c 0
EndSplineSet
EndChar

StartChar: G
Encoding: 71 71 70
Width: 361
VWidth: 0
Flags: HMW
LayerCount: 2
Fore
SplineSet
303 228 m 0
 297 246 290 267 271 286 c 0
 229 328 158 328 120 290 c 0
 58 228 58 101 114 45 c 0
 161 -2 263 15 271 36 c 0
 271 117 l 0
 271 130 279 161 231 164 c 0
 231 175 l 0
 355 175 l 0
 355 164 l 0
 314 161 322 130 322 117 c 0
 322 31 l 0
 233 -23 124 -19 67 39 c 0
 0 105 0 220 72 292 c 0
 132 352 213 343 261 325 c 0
 282 317 298 321 301 337 c 0
 314 337 l 0
 317 228 l 0
 303 228 l 0
EndSplineSet
EndChar

StartChar: H
Encoding: 72 72 71
Width: 361
VWidth: 0
Flags: HMW
LayerCount: 2
Fore
SplineSet
257 159 m 0
 106 159 l 0
 106 60 l 0
 106 17 112 11 151 11 c 0
 151 0 l 0
 10 0 l 0
 10 11 l 0
 49 11 55 17 55 60 c 0
 55 271 l 0
 55 314 49 320 10 320 c 0
 10 331 l 0
 151 331 l 0
 151 320 l 0
 112 320 106 314 106 271 c 0
 106 182 l 0
 257 182 l 0
 257 271 l 0
 257 314 251 320 212 320 c 0
 212 331 l 0
 353 331 l 0
 353 320 l 0
 314 320 308 314 308 271 c 0
 308 60 l 0
 308 17 314 11 353 11 c 0
 353 0 l 0
 212 0 l 0
 212 11 l 0
 251 11 257 17 257 60 c 0
 257 159 l 0
EndSplineSet
EndChar

StartChar: I
Encoding: 73 73 72
Width: 166
VWidth: 0
Flags: HMW
LayerCount: 2
Fore
SplineSet
109 60 m 0
 109 17 115 11 154 11 c 0
 154 0 l 0
 13 0 l 0
 13 11 l 0
 52 11 58 17 58 60 c 0
 58 271 l 0
 58 314 52 320 13 320 c 0
 13 331 l 0
 154 331 l 0
 154 320 l 0
 115 320 109 314 109 271 c 0
 109 60 l 0
EndSplineSet
EndChar

StartChar: J
Encoding: 74 74 73
Width: 194
VWidth: 0
Flags: HMW
LayerCount: 2
Fore
SplineSet
144 117 m 0
 144 -10 66 -21 22 2 c 0
 -20 23 20 83 50 45 c 0
 56 39 47 14 66 15 c 0
 83 15 93 24 93 63 c 0
 93 271 l 0
 93 314 87 320 48 320 c 0
 48 331 l 0
 189 331 l 0
 189 320 l 0
 150 320 144 314 144 271 c 0
 144 117 l 0
EndSplineSet
EndChar

StartChar: K
Encoding: 75 75 74
Width: 361
VWidth: 0
Flags: HMW
LayerCount: 2
Fore
SplineSet
7 11 m 0
 46 11 52 17 52 60 c 0
 52 271 l 0
 52 314 46 320 7 320 c 0
 7 331 l 0
 148 331 l 0
 148 320 l 0
 109 320 103 314 103 271 c 0
 103 162 l 0
 194 245 l 0
 255 303 249 316 206 320 c 0
 206 331 l 0
 334 331 l 0
 334 320 l 0
 297 319 290 315 229 250 c 0
 168 190 l 0
 221 132 261 86 296 39 c 0
 309 22 327 10 352 11 c 0
 352 0 l 0
 206 0 l 0
 206 11 l 0
 238 10 249 21 233 41 c 0
 202 78 164 121 128 158 c 0
 103 140 l 0
 103 60 l 0
 103 17 109 11 148 11 c 0
 148 0 l 0
 7 0 l 0
 7 11 l 0
EndSplineSet
EndChar

StartChar: L
Encoding: 76 76 75
Width: 305
VWidth: 0
Flags: HMW
LayerCount: 2
Fore
SplineSet
103 62 m 0
 103 20 96 23 148 23 c 0
 212 23 l 0
 224 23 268 27 285 85 c 0
 300 85 l 0
 278 0 l 0
 7 0 l 0
 7 11 l 0
 58 11 52 37 52 60 c 0
 52 271 l 0
 52 314 46 320 7 320 c 0
 7 331 l 0
 148 331 l 0
 148 320 l 0
 109 320 103 314 103 271 c 0
 103 62 l 0
EndSplineSet
EndChar

StartChar: M
Encoding: 77 77 76
Width: 444
VWidth: 0
Flags: HMW
LayerCount: 2
Fore
SplineSet
55 271 m 0
 55 291 55 320 10 320 c 0
 10 331 l 0
 107 331 l 0
 222 80 l 0
 341 331 l 0
 436 331 l 0
 436 320 l 0
 397 319 392 310 392 271 c 0
 392 60 l 0
 392 17 398 11 436 11 c 0
 436 0 l 0
 296 0 l 0
 296 11 l 0
 335 11 341 17 341 60 c 0
 341 275 l 0
 210 0 l 0
 202 0 l 0
 77 275 l 0
 77 60 l 0
 77 30 77 11 121 11 c 0
 121 0 l 0
 10 0 l 0
 10 11 l 0
 55 11 55 30 55 60 c 0
 55 271 l 0
EndSplineSet
EndChar

StartChar: N
Encoding: 78 78 77
Width: 361
VWidth: 0
Flags: HMW
LayerCount: 2
Fore
SplineSet
73 268 m 0
 73 60 l 0
 73 30 70 11 117 11 c 0
 117 0 l 0
 6 0 l 0
 6 11 l 0
 54 11 51 30 51 60 c 0
 51 271 l 0
 51 291 59 320 6 320 c 0
 6 331 l 0
 90 331 l 0
 288 84 l 0
 288 271 l 0
 288 301 291 320 244 320 c 0
 244 331 l 0
 355 331 l 0
 355 320 l 0
 308 320 311 301 311 271 c 0
 311 -7 l 0
 298 -7 l 0
 73 268 l 0
EndSplineSet
EndChar

StartChar: O
Encoding: 79 79 78
Width: 361
VWidth: 0
Flags: HMW
LayerCount: 2
Fore
SplineSet
69 42 m 0
 0 111 0 220 69 289 c 0
 134 354 230 354 295 289 c 0
 364 220 364 111 295 42 c 0
 230 -23 134 -23 69 42 c 0
251 288 m 0
 212 327 152 327 113 288 c 0
 58 233 58 98 113 43 c 0
 152 4 212 4 251 43 c 0
 306 98 306 233 251 288 c 0
EndSplineSet
EndChar

StartChar: P
Encoding: 80 80 79
Width: 278
VWidth: 0
Flags: HMW
LayerCount: 2
Fore
SplineSet
6 320 m 0
 6 331 l 0
 166 331 l 0
 170 331 218 327 248 297 c 0
 279 266 279 212 245 178 c 0
 206 139 152 137 102 144 c 0
 102 60 l 0
 102 17 108 11 147 11 c 0
 147 0 l 0
 6 0 l 0
 6 11 l 0
 45 11 51 17 51 60 c 0
 51 271 l 0
 51 314 45 320 6 320 c 0
109 303 m 0
 99 293 102 278 102 262 c 0
 102 164 l 0
 131 162 172 157 201 186 c 0
 227 212 227 262 197 292 c 0
 175 314 120 314 109 303 c 0
EndSplineSet
EndChar

StartChar: Q
Encoding: 81 81 80
Width: 361
VWidth: 0
Flags: HMW
LayerCount: 2
Fore
SplineSet
113 288 m 0
 58 233 58 98 113 43 c 0
 152 4 212 4 251 43 c 0
 306 98 306 233 251 288 c 0
 212 327 152 327 113 288 c 0
351 -75 m 0
 351 -87 l 0
 259 -93 195 -85 130 2 c 0
 109 9 88 23 69 42 c 0
 0 111 0 220 69 289 c 0
 134 354 230 354 295 289 c 0
 364 220 364 111 295 42 c 0
 270 17 240 0 209 -4 c 0
 235 -43 260 -74 351 -75 c 0
EndSplineSet
EndChar

StartChar: R
Encoding: 82 82 81
Width: 333
VWidth: 0
Flags: HMW
LayerCount: 2
Fore
SplineSet
200 292 m 0
 179 313 120 315 108 303 c 0
 100 295 102 283 102 262 c 0
 102 171 l 0
 153 168 180 174 202 196 c 0
 225 219 225 267 200 292 c 0
167 331 m 0
 172 331 222 325 250 297 c 0
 279 268 279 217 247 185 c 0
 232 170 215 161 185 156 c 0
 202 134 219 113 236 91 c 0
 249 74 262 56 275 39 c 0
 283 28 291 13 326 11 c 0
 326 0 l 0
 246 0 l 0
 231 22 215 43 200 65 c 0
 180 93 159 121 139 149 c 0
 129 149 112 150 102 151 c 0
 102 60 l 0
 102 17 108 11 146 11 c 0
 146 0 l 0
 6 0 l 0
 6 11 l 0
 45 11 51 17 51 60 c 0
 51 271 l 0
 51 314 45 320 6 320 c 0
 6 331 l 0
 167 331 l 0
EndSplineSet
EndChar

StartChar: S
Encoding: 83 83 82
Width: 278
VWidth: 0
Flags: HMW
LayerCount: 2
Fore
SplineSet
93 300 m 0
 75 282 75 249 95 229 c 0
 131 193 184 186 221 149 c 0
 254 116 255 58 222 25 c 0
 191 -6 139 -15 103 -1 c 0
 67 13 45 14 46 -7 c 0
 36 -7 l 0
 21 101 l 0
 34 101 l 0
 39 88 47 64 67 44 c 0
 106 5 157 5 184 32 c 0
 204 52 204 90 177 117 c 0
 144 150 98 152 63 187 c 0
 28 222 28 276 62 310 c 0
 95 343 143 341 165 332 c 0
 207 314 213 318 219 337 c 0
 229 337 l 0
 238 225 l 0
 225 225 l 0
 218 251 211 273 195 289 c 0
 163 321 115 322 93 300 c 0
EndSplineSet
EndChar

StartChar: T
Encoding: 84 84 83
Width: 305
VWidth: 0
Flags: HMW
LayerCount: 2
Fore
SplineSet
285 243 m 0
 279 299 246 308 237 308 c 0
 178 308 l 0
 178 60 l 0
 178 17 184 11 222 11 c 0
 222 0 l 0
 83 0 l 0
 83 11 l 0
 121 11 127 17 127 60 c 0
 127 308 l 0
 69 308 l 0
 60 308 27 299 21 243 c 0
 9 243 l 0
 9 331 l 0
 297 331 l 0
 297 243 l 0
 285 243 l 0
EndSplineSet
EndChar

StartChar: U
Encoding: 85 85 84
Width: 361
VWidth: 0
Flags: HMW
LayerCount: 2
Fore
SplineSet
309 271 m 0
 309 124 l 0
 309 117 307 59 277 29 c 0
 229 -19 127 -19 82 26 c 0
 58 50 52 105 52 118 c 0
 52 271 l 0
 52 313 47 320 8 320 c 0
 8 331 l 0
 148 331 l 0
 148 320 l 0
 109 320 104 313 104 271 c 0
 104 100 l 0
 104 91 106 57 125 38 c 0
 157 6 226 6 263 43 c 0
 286 66 286 123 286 127 c 0
 286 271 l 0
 286 314 280 320 242 320 c 0
 242 331 l 0
 353 331 l 0
 353 320 l 0
 315 320 309 314 309 271 c 0
EndSplineSet
EndChar

StartChar: V
Encoding: 86 86 85
Width: 361
VWidth: 0
Flags: HMW
LayerCount: 2
Fore
SplineSet
59 271 m 0
 44 294 50 315 10 320 c 0
 10 331 l 0
 139 331 l 0
 139 320 l 0
 97 323 95 304 110 271 c 0
 199 78 l 0
 280 271 l 0
 290 295 291 323 247 320 c 0
 247 331 l 0
 351 331 l 0
 351 320 l 0
 320 319 318 305 304 271 c 0
 188 -7 l 0
 183 -7 l 0
 59 271 l 0
EndSplineSet
EndChar

StartChar: W
Encoding: 87 87 86
Width: 472
VWidth: 0
Flags: HMW
LayerCount: 2
Fore
SplineSet
416 271 m 0
 311 -7 l 0
 307 -7 l 0
 234 206 l 0
 154 -7 l 0
 150 -7 l 0
 55 271 l 0
 42 310 37 317 5 320 c 0
 5 331 l 0
 134 331 l 0
 134 320 l 0
 96 323 90 312 106 267 c 0
 169 91 l 0
 223 240 l 0
 213 271 l 0
 200 310 195 317 162 320 c 0
 162 331 l 0
 291 331 l 0
 291 320 l 0
 254 323 248 312 264 267 c 0
 326 91 l 0
 392 271 l 0
 406 310 394 320 359 320 c 0
 359 331 l 0
 468 331 l 0
 468 320 l 0
 433 320 430 308 416 271 c 0
EndSplineSet
EndChar

StartChar: X
Encoding: 88 88 87
Width: 361
VWidth: 0
Flags: HMW
LayerCount: 2
Fore
SplineSet
219 67 m 0
 172 142 l 0
 110 62 l 0
 85 30 86 9 126 11 c 0
 126 0 l 0
 6 0 l 0
 6 11 l 0
 34 11 54 23 83 60 c 0
 161 160 l 0
 90 271 l 0
 68 305 52 320 19 320 c 0
 19 331 l 0
 170 331 l 0
 170 320 l 0
 134 323 121 310 150 264 c 0
 192 199 l 0
 247 269 l 0
 272 301 271 322 233 320 c 0
 233 331 l 0
 351 331 l 0
 351 320 l 0
 323 320 303 308 274 271 c 0
 203 181 l 0
 282 60 l 0
 304 26 320 11 353 11 c 0
 353 0 l 0
 204 0 l 0
 204 11 l 0
 251 11 247 24 219 67 c 0
EndSplineSet
EndChar

StartChar: Y
Encoding: 89 89 88
Width: 361
VWidth: 0
Flags: HMW
LayerCount: 2
Fore
SplineSet
10 320 m 0
 10 331 l 0
 152 331 l 0
 152 320 l 0
 102 324 111 296 130 271 c 0
 194 170 l 0
 260 271 l 0
 284 309 278 323 242 320 c 0
 242 331 l 0
 352 331 l 0
 352 320 l 0
 322 319 301 300 283 271 c 0
 205 148 l 0
 205 60 l 0
 205 17 211 11 249 11 c 0
 249 0 l 0
 109 0 l 0
 109 11 l 0
 148 11 154 17 154 60 c 0
 154 144 l 0
 74 271 l 0
 63 287 49 320 10 320 c 0
EndSplineSet
EndChar

StartChar: Z
Encoding: 90 90 89
Width: 305
VWidth: 0
Flags: HMW
LayerCount: 2
Fore
SplineSet
236 23 m 0
 260 28 285 44 287 88 c 0
 299 88 l 0
 290 0 l 0
 4 0 l 0
 4 7 l 0
 234 308 l 0
 83 308 l 0
 59 303 34 287 32 243 c 0
 20 243 l 0
 29 331 l 0
 299 331 l 0
 299 324 l 0
 69 23 l 0
 236 23 l 0
EndSplineSet
EndChar

StartChar: dieresis
Encoding: 91 168 90
Width: 166
VWidth: 0
Flags: HMW
LayerCount: 2
Fore
SplineSet
115 270 m 0
 105 280 105 294 115 304 c 0
 126 315 140 315 151 304 c 0
 161 294 161 280 151 270 c 0
 140 259 126 259 115 270 c 0
52 270 m 0
 41 259 27 259 16 270 c 0
 6 280 6 294 16 304 c 0
 27 315 41 315 52 304 c 0
 62 294 62 280 52 270 c 0
EndSplineSet
EndChar

StartChar: ring
Encoding: 92 730 91
Width: 166
VWidth: 0
Flags: HMW
LayerCount: 2
Fore
SplineSet
105 312 m 0
 94 325 72 326 59 312 c 0
 49 300 48 285 58 271 c 0
 71 257 92 256 106 271 c 0
 116 282 115 302 105 312 c 0
45 259 m 0
 29 278 29 304 45 323 c 0
 67 345 98 347 119 323 c 0
 135 306 135 275 119 259 c 0
 98 237 68 236 45 259 c 0
EndSplineSet
EndChar

StartChar: dotaccent
Encoding: 93 729 92
Width: 166
VWidth: 0
Flags: HMW
LayerCount: 2
Fore
SplineSet
101 270 m 0
 90 259 76 259 65 270 c 0
 55 280 56 294 66 304 c 0
 77 315 91 315 102 304 c 0
 112 294 111 280 101 270 c 0
EndSplineSet
EndChar

StartChar: circumflex
Encoding: 94 710 93
Width: 166
VWidth: 0
Flags: HMW
LayerCount: 2
Fore
SplineSet
83 303 m 0
 25 254 l 0
 5 254 l 0
 68 337 l 0
 98 337 l 0
 161 254 l 0
 141 254 l 0
 83 303 l 0
EndSplineSet
EndChar

StartChar: underscore
Encoding: 95 95 94
Width: 250
VWidth: 0
Flags: HMW
LayerCount: 2
Fore
SplineSet
249 -42 m 0
 249 -67 l 0
 0 -67 l 0
 0 -42 l 0
 249 -42 l 0
EndSplineSet
EndChar

StartChar: grave
Encoding: 96 96 95
Width: 166
VWidth: 0
Flags: HMW
LayerCount: 2
Fore
SplineSet
29 298 m 0
 -11 321 17 363 58 321 c 0
 124 254 l 0
 103 254 l 0
 29 298 l 0
EndSplineSet
EndChar

StartChar: a
Encoding: 97 97 96
Width: 222
VWidth: 0
Flags: HMW
LayerCount: 2
Fore
SplineSet
140 45 m 0
 140 131 l 0
 118 124 95 122 77 104 c 0
 56 83 56 50 72 34 c 0
 89 17 116 27 140 45 c 0
219 37 m 0
 219 22 l 0
 185 -17 144 -15 142 32 c 0
 102 0 61 -20 34 7 c 0
 11 30 11 69 38 96 c 0
 65 123 104 134 140 145 c 0
 140 175 143 195 133 205 c 0
 117 221 89 221 74 206 c 0
 59 191 80 174 64 158 c 0
 55 149 40 149 32 157 c 0
 24 165 24 186 38 200 c 0
 75 237 137 237 164 210 c 0
 180 194 182 168 182 158 c 0
 182 59 l 0
 182 42 175 6 219 37 c 0
EndSplineSet
EndChar

StartChar: b
Encoding: 98 98 97
Width: 250
VWidth: 0
Flags: HMW
LayerCount: 2
Fore
SplineSet
86 166 m 0
 86 40 l 0
 86 10 148 4 172 28 c 0
 201 57 201 151 170 182 c 0
 148 204 101 204 86 166 c 0
86 341 m 0
 86 190 l 0
 113 238 175 238 206 207 c 0
 249 164 249 77 199 27 c 0
 164 -8 110 -10 79 2 c 0
 68 7 44 11 44 40 c 0
 44 266 l 0
 44 311 47 309 5 309 c 0
 5 318 l 0
 86 341 l 0
EndSplineSet
EndChar

StartChar: c
Encoding: 99 99 98
Width: 222
VWidth: 0
Flags: HMW
LayerCount: 2
Fore
SplineSet
202 82 m 0
 210 78 l 0
 204 61 194 41 176 23 c 0
 139 -14 85 -14 50 21 c 0
 6 65 6 150 49 194 c 0
 95 239 160 239 193 206 c 0
 212 187 210 154 183 154 c 0
 151 154 167 186 152 201 c 0
 134 219 104 220 81 197 c 0
 46 162 46 89 83 52 c 0
 116 19 177 28 202 82 c 0
EndSplineSet
EndChar

StartChar: d
Encoding: 100 100 99
Width: 250
VWidth: 0
Flags: HMW
LayerCount: 2
Fore
SplineSet
82 36 m 0
 104 14 151 13 165 53 c 0
 165 171 l 0
 153 224 103 221 81 199 c 0
 47 165 47 71 82 36 c 0
207 341 m 0
 207 56 l 0
 207 32 208 31 246 32 c 0
 246 23 l 0
 226 19 193 10 165 -7 c 0
 165 31 l 0
 138 -14 79 -15 46 18 c 0
 1 63 1 150 53 202 c 0
 89 238 138 235 165 210 c 0
 165 264 l 0
 165 311 170 309 126 309 c 0
 126 318 l 0
 207 341 l 0
EndSplineSet
EndChar

StartChar: e
Encoding: 101 101 100
Width: 222
VWidth: 0
Flags: HMW
LayerCount: 2
Fore
SplineSet
46 154 m 0
 154 154 l 0
 155 167 151 186 141 196 c 0
 121 216 85 215 67 197 c 0
 50 180 49 167 46 154 c 0
211 79 m 0
 205 63 197 44 180 27 c 0
 139 -14 78 -14 46 18 c 0
 -1 65 -1 154 46 201 c 0
 83 238 144 238 176 206 c 0
 196 186 201 163 202 137 c 0
 46 137 l 0
 46 125 49 77 78 48 c 0
 101 25 163 12 203 83 c 0
 211 79 l 0
EndSplineSet
EndChar

StartChar: f
Encoding: 102 102 101
Width: 166
VWidth: 0
Flags: HMW
LayerCount: 2
Fore
SplineSet
10 9 m 0
 43 9 49 15 49 57 c 0
 49 207 l 0
 10 207 l 0
 10 224 l 0
 49 224 l 0
 49 229 45 281 80 316 c 0
 111 347 160 347 181 326 c 0
 200 307 189 284 170 284 c 0
 146 284 150 307 140 317 c 0
 129 328 114 328 102 316 c 0
 93 307 91 287 91 275 c 0
 91 224 l 0
 153 224 l 0
 153 207 l 0
 91 207 l 0
 91 57 l 0
 91 15 97 9 130 9 c 0
 130 0 l 0
 10 0 l 0
 10 9 l 0
EndSplineSet
EndChar

StartChar: g
Encoding: 103 103 102
Width: 250
VWidth: 0
Flags: HMW
LayerCount: 2
Fore
SplineSet
102 99 m 0
 118 83 139 83 153 97 c 0
 173 117 167 175 140 202 c 0
 124 218 103 218 89 204 c 0
 69 184 75 126 102 99 c 0
203 -56 m 0
 217 -42 217 -25 209 -16 c 0
 194 -2 136 -10 72 -1 c 0
 46 -24 44 -51 58 -65 c 0
 81 -88 179 -80 203 -56 c 0
210 -68 m 0
 163 -115 64 -122 28 -86 c 0
 6 -64 4 -40 62 2 c 0
 22 13 28 46 77 81 c 0
 33 98 20 165 60 205 c 0
 93 238 137 233 185 213 c 0
 200 209 219 209 235 213 c 0
 235 191 l 0
 196 191 l 0
 208 161 209 124 182 97 c 0
 156 71 130 71 90 77 c 0
 61 56 55 37 99 35 c 0
 142 33 193 40 220 13 c 0
 235 -2 235 -43 210 -68 c 0
EndSplineSet
EndChar

StartChar: h
Encoding: 104 104 103
Width: 250
VWidth: 0
Flags: HMW
LayerCount: 2
Fore
SplineSet
80 341 m 0
 80 191 l 0
 119 239 175 234 193 216 c 0
 208 201 212 179 212 161 c 0
 212 57 l 0
 212 15 218 9 245 9 c 0
 245 0 l 0
 140 0 l 0
 140 9 l 0
 164 9 170 15 170 57 c 0
 170 163 l 0
 170 171 168 184 159 193 c 0
 143 209 108 206 80 173 c 0
 80 57 l 0
 80 15 86 9 110 9 c 0
 110 0 l 0
 5 0 l 0
 5 9 l 0
 32 9 38 15 38 57 c 0
 38 266 l 0
 38 311 41 309 5 309 c 0
 5 318 l 0
 80 341 l 0
EndSplineSet
EndChar

StartChar: i
Encoding: 105 105 104
Width: 139
VWidth: 0
Flags: HMW
LayerCount: 2
Fore
SplineSet
88 299 m 0
 77 288 63 288 52 299 c 0
 42 309 43 323 53 333 c 0
 64 344 78 344 89 333 c 0
 99 323 98 309 88 299 c 0
91 228 m 0
 91 57 l 0
 91 15 97 9 130 9 c 0
 130 0 l 0
 10 0 l 0
 10 9 l 0
 43 9 49 15 49 57 c 0
 49 151 l 0
 49 196 45 197 10 189 c 0
 10 200 l 0
 91 228 l 0
EndSplineSet
EndChar

StartChar: j
Encoding: 106 106 105
Width: 139
VWidth: 0
Flags: HMW
LayerCount: 2
Fore
SplineSet
62 299 m 0
 52 309 53 323 63 333 c 0
 74 344 88 344 99 333 c 0
 109 323 108 309 98 299 c 0
 87 288 73 288 62 299 c 0
21 189 m 0
 21 200 l 0
 101 229 l 0
 101 17 l 0
 101 -48 83 -109 21 -109 c 0
 -55 -109 -28 -20 15 -71 c 0
 33 -92 59 -105 59 -32 c 0
 59 149 l 0
 60 196 56 197 21 189 c 0
EndSplineSet
EndChar

StartChar: k
Encoding: 107 107 106
Width: 250
VWidth: 0
Flags: HMW
LayerCount: 2
Fore
SplineSet
82 341 m 0
 82 131 l 0
 144 185 l 0
 172 209 167 215 139 215 c 0
 139 224 l 0
 237 224 l 0
 237 215 l 0
 198 218 176 194 161 181 c 0
 120 142 l 0
 200 35 l 0
 209 23 233 10 250 9 c 0
 250 0 l 0
 142 0 l 0
 142 9 l 0
 162 9 162 20 159 25 c 0
 82 125 l 0
 82 57 l 0
 82 15 88 9 118 9 c 0
 118 0 l 0
 1 0 l 0
 1 9 l 0
 34 9 40 15 40 57 c 0
 40 266 l 0
 40 311 43 309 1 309 c 0
 1 318 l 0
 82 341 l 0
EndSplineSet
EndChar

StartChar: l
Encoding: 108 108 107
Width: 139
VWidth: 0
Flags: HMW
LayerCount: 2
Fore
SplineSet
91 341 m 0
 91 57 l 0
 91 15 97 9 130 9 c 0
 130 0 l 0
 10 0 l 0
 10 9 l 0
 43 9 49 15 49 57 c 0
 49 266 l 0
 49 311 52 309 10 309 c 0
 10 318 l 0
 91 341 l 0
EndSplineSet
EndChar

StartChar: m
Encoding: 109 109 108
Width: 389
VWidth: 0
Flags: HMW
LayerCount: 2
Fore
SplineSet
80 173 m 0
 80 57 l 0
 80 15 86 9 110 9 c 0
 110 0 l 0
 5 0 l 0
 5 9 l 0
 32 9 38 15 38 57 c 0
 38 154 l 0
 38 199 41 196 5 196 c 0
 5 205 l 0
 80 229 l 0
 80 189 l 0
 120 238 174 235 191 218 c 0
 198 211 205 199 207 188 c 0
 249 235 306 238 327 217 c 0
 341 203 347 167 347 162 c 0
 347 57 l 0
 347 15 353 9 380 9 c 0
 380 0 l 0
 275 0 l 0
 275 9 l 0
 299 9 305 15 305 57 c 0
 305 164 l 0
 305 170 303 186 295 195 c 0
 277 212 241 210 210 174 c 0
 212 162 l 0
 212 57 l 0
 212 15 218 9 245 9 c 0
 245 0 l 0
 140 0 l 0
 140 9 l 0
 164 9 170 15 170 57 c 0
 170 164 l 0
 170 170 168 187 160 195 c 0
 144 211 108 209 80 173 c 0
EndSplineSet
EndChar

StartChar: n
Encoding: 110 110 109
Width: 250
VWidth: 0
Flags: HMW
LayerCount: 2
Fore
SplineSet
5 205 m 0
 80 229 l 0
 80 191 l 0
 119 239 175 234 193 216 c 0
 208 201 212 179 212 161 c 0
 212 57 l 0
 212 15 218 9 245 9 c 0
 245 0 l 0
 140 0 l 0
 140 9 l 0
 164 9 170 15 170 57 c 0
 170 163 l 0
 170 171 168 184 159 193 c 0
 143 209 108 206 80 173 c 0
 80 57 l 0
 80 15 86 9 110 9 c 0
 110 0 l 0
 5 0 l 0
 5 9 l 0
 32 9 38 15 38 57 c 0
 38 153 l 0
 38 198 41 196 5 196 c 0
 5 205 l 0
EndSplineSet
EndChar

StartChar: o
Encoding: 111 111 110
Width: 250
VWidth: 0
Flags: HMW
LayerCount: 2
Fore
SplineSet
94 27 m 0
 114 7 151 7 170 26 c 0
 202 58 202 156 160 198 c 0
 140 218 103 218 84 199 c 0
 52 167 52 69 94 27 c 0
49 26 m 0
 6 69 6 151 52 197 c 0
 94 239 164 239 205 198 c 0
 248 155 248 73 202 27 c 0
 160 -15 90 -15 49 26 c 0
EndSplineSet
EndChar

StartChar: p
Encoding: 112 112 111
Width: 250
VWidth: 0
Flags: HMW
LayerCount: 2
Fore
SplineSet
173 183 m 0
 149 207 112 208 86 174 c 0
 86 38 l 0
 113 6 147 5 169 27 c 0
 202 60 202 154 173 183 c 0
5 207 m 0
 86 229 l 0
 86 191 l 0
 122 237 176 240 207 209 c 0
 248 168 248 73 204 29 c 0
 162 -13 118 -15 86 16 c 0
 86 -52 l 0
 86 -94 92 -100 125 -100 c 0
 125 -109 l 0
 5 -109 l 0
 5 -100 l 0
 38 -100 44 -94 44 -52 c 0
 44 155 l 0
 44 200 47 198 5 198 c 0
 5 207 l 0
EndSplineSet
EndChar

StartChar: q
Encoding: 113 113 112
Width: 250
VWidth: 0
Flags: HMW
LayerCount: 2
Fore
SplineSet
165 50 m 0
 165 191 l 0
 146 223 106 224 83 201 c 0
 46 164 46 76 80 42 c 0
 101 21 139 20 165 50 c 0
165 -52 m 0
 165 33 l 0
 127 -14 73 -15 43 15 c 0
 1 57 1 149 55 203 c 0
 88 236 139 236 177 213 c 0
 207 230 l 0
 207 -52 l 0
 207 -94 213 -100 246 -100 c 0
 246 -109 l 0
 126 -109 l 0
 126 -100 l 0
 159 -100 165 -94 165 -52 c 0
EndSplineSet
EndChar

StartChar: r
Encoding: 114 114 113
Width: 166
VWidth: 0
Flags: HMW
LayerCount: 2
Fore
SplineSet
1 201 m 0
 83 229 l 0
 83 187 l 0
 105 222 143 240 161 222 c 0
 182 201 155 162 130 187 c 0
 114 203 98 200 83 160 c 0
 83 57 l 0
 83 15 89 9 121 9 c 0
 121 0 l 0
 2 0 l 0
 2 9 l 0
 35 9 41 15 41 57 c 0
 41 149 l 0
 41 191 46 200 1 192 c 0
 1 201 l 0
EndSplineSet
EndChar

StartChar: s
Encoding: 115 115 114
Width: 194
VWidth: 0
Flags: HMW
LayerCount: 2
Fore
SplineSet
35 79 m 0
 35 72 42 41 57 26 c 0
 80 3 116 6 129 19 c 0
 144 34 144 54 127 71 c 0
 106 92 67 102 43 126 c 0
 20 149 20 184 43 207 c 0
 70 234 110 232 129 222 c 0
 146 214 151 217 151 224 c 0
 160 224 l 0
 160 155 l 0
 151 155 l 0
 151 163 143 190 131 202 c 0
 113 220 81 220 67 206 c 0
 55 194 55 172 68 159 c 0
 86 141 135 124 161 98 c 0
 179 80 179 40 157 18 c 0
 134 -5 95 -9 73 -1 c 0
 58 5 38 13 35 0 c 0
 26 0 l 0
 26 79 l 0
 35 79 l 0
EndSplineSet
EndChar

StartChar: t
Encoding: 116 116 115
Width: 139
VWidth: 0
Flags: HMW
LayerCount: 2
Fore
SplineSet
140 36 m 0
 107 -10 65 -13 47 5 c 0
 33 19 35 42 35 59 c 0
 35 207 l 0
 7 207 l 0
 7 213 l 0
 32 232 57 260 77 290 c 0
 77 224 l 0
 130 224 l 0
 130 207 l 0
 77 207 l 0
 77 59 l 0
 77 49 79 36 85 29 c 0
 97 18 116 24 133 43 c 0
 140 36 l 0
EndSplineSet
EndChar

StartChar: u
Encoding: 117 117 116
Width: 250
VWidth: 0
Flags: HMW
LayerCount: 2
Fore
SplineSet
168 -5 m 0
 168 35 l 0
 131 -17 78 -12 53 13 c 0
 42 24 38 47 38 53 c 0
 38 170 l 0
 38 215 41 213 5 213 c 0
 5 224 l 0
 80 224 l 0
 80 77 l 0
 80 61 80 45 90 35 c 0
 106 19 150 23 168 54 c 0
 168 170 l 0
 168 215 171 213 135 213 c 0
 135 224 l 0
 210 224 l 0
 210 77 l 0
 210 43 204 26 240 30 c 0
 240 21 l 0
 168 -5 l 0
EndSplineSet
EndChar

StartChar: v
Encoding: 118 118 117
Width: 250
VWidth: 0
Flags: HMW
LayerCount: 2
Fore
SplineSet
194 165 m 0
 127 -5 l 0
 118 -5 l 0
 48 165 l 0
 38 189 31 215 5 215 c 0
 5 224 l 0
 102 224 l 0
 102 215 l 0
 65 215 83 182 90 165 c 0
 134 63 l 0
 175 165 l 0
 185 190 196 215 163 215 c 0
 163 224 l 0
 234 224 l 0
 234 215 l 0
 210 215 204 189 194 165 c 0
EndSplineSet
EndChar

StartChar: w
Encoding: 119 119 118
Width: 361
VWidth: 0
Flags: HMW
LayerCount: 2
Fore
SplineSet
131 215 m 0
 131 224 l 0
 228 224 l 0
 228 215 l 0
 190 215 209 180 217 158 c 0
 250 62 l 0
 290 165 l 0
 300 191 311 214 278 215 c 0
 278 224 l 0
 347 224 l 0
 347 215 l 0
 327 215 318 188 309 165 c 0
 243 -5 l 0
 235 -5 l 0
 186 133 l 0
 123 -5 l 0
 115 -5 l 0
 54 165 l 0
 44 193 36 214 11 215 c 0
 11 224 l 0
 108 224 l 0
 108 215 l 0
 70 215 89 180 97 158 c 0
 132 62 l 0
 176 159 l 0
 174 165 l 0
 162 193 156 214 131 215 c 0
EndSplineSet
EndChar

StartChar: x
Encoding: 120 120 119
Width: 250
VWidth: 0
Flags: HMW
LayerCount: 2
Fore
SplineSet
240 9 m 0
 240 0 l 0
 139 0 l 0
 139 9 l 0
 179 8 154 40 143 59 c 0
 114 102 l 0
 84 59 l 0
 66 32 51 5 83 9 c 0
 83 0 l 0
 9 0 l 0
 9 9 l 0
 32 10 48 34 65 59 c 0
 105 116 l 0
 73 165 l 0
 62 182 47 218 14 215 c 0
 14 224 l 0
 118 224 l 0
 118 215 l 0
 80 214 103 184 115 165 c 0
 127 147 l 0
 140 165 l 0
 154 183 175 220 142 215 c 0
 142 224 l 0
 217 224 l 0
 217 215 l 0
 183 212 174 185 159 165 c 0
 136 133 l 0
 185 59 l 0
 196 42 209 9 240 9 c 0
EndSplineSet
EndChar

StartChar: y
Encoding: 121 121 120
Width: 250
VWidth: 0
Flags: HMW
LayerCount: 2
Fore
SplineSet
137 10 m 0
 126 -20 112 -68 87 -93 c 0
 49 -131 -11 -93 24 -58 c 0
 31 -51 49 -56 65 -63 c 0
 79 -68 100 -58 116 13 c 0
 49 165 l 0
 42 181 31 215 5 215 c 0
 5 224 l 0
 102 224 l 0
 102 215 l 0
 70 214 80 190 92 165 c 0
 136 62 l 0
 175 165 l 0
 181 183 199 215 163 215 c 0
 163 224 l 0
 234 224 l 0
 234 215 l 0
 210 216 201 181 194 165 c 0
 137 10 l 0
EndSplineSet
EndChar

StartChar: z
Encoding: 122 122 121
Width: 222
VWidth: 0
Flags: HMW
LayerCount: 2
Fore
SplineSet
155 17 m 0
 168 17 192 21 200 70 c 0
 209 70 l 0
 202 0 l 0
 13 0 l 0
 13 7 l 0
 152 207 l 0
 75 207 l 0
 55 207 39 198 39 165 c 0
 30 165 l 0
 30 224 l 0
 204 224 l 0
 204 216 l 0
 66 17 l 0
 155 17 l 0
EndSplineSet
EndChar

StartChar: breve
Encoding: 123 728 122
Width: 166
VWidth: 0
Flags: HMW
LayerCount: 2
Fore
SplineSet
27 330 m 0
 32 312 38 304 52 293 c 0
 72 279 97 277 117 292 c 0
 126 300 134 307 137 328 c 0
 155 328 l 0
 153 305 147 279 126 266 c 0
 102 249 62 248 37 267 c 0
 22 283 12 300 10 330 c 0
 27 330 l 0
EndSplineSet
EndChar

StartChar: macron
Encoding: 124 175 123
Width: 166
VWidth: 0
Flags: HMW
LayerCount: 2
Fore
SplineSet
6 274 m 0
 6 302 l 0
 162 302 l 0
 162 274 l 0
 6 274 l 0
EndSplineSet
EndChar

StartChar: hungarumlaut
Encoding: 125 733 124
Width: 166
VWidth: 0
Flags: HMW
LayerCount: 2
Fore
SplineSet
76 265 m 0
 140 330 l 0
 178 373 209 339 168 312 c 0
 97 265 l 0
 76 265 l 0
70 332 m 0
 111 374 137 336 96 312 c 0
 25 265 l 0
 4 265 l 0
 70 332 l 0
EndSplineSet
EndChar

StartChar: tilde
Encoding: 126 732 125
Width: 166
VWidth: 0
Flags: HMW
LayerCount: 2
Fore
SplineSet
165 319 m 0
 161 294 143 266 112 266 c 0
 83 266 64 288 45 288 c 0
 27 288 20 278 13 266 c 0
 0 266 l 0
 4 291 22 319 53 319 c 0
 82 319 101 297 120 297 c 0
 138 297 145 307 152 319 c 0
 165 319 l 0
EndSplineSet
EndChar

StartChar: caron
Encoding: 127 711 126
Width: 166
VWidth: 0
Flags: HMW
LayerCount: 2
Fore
SplineSet
86 288 m 0
 141 337 l 0
 161 337 l 0
 98 254 l 0
 68 254 l 0
 5 337 l 0
 25 337 l 0
 86 288 l 0
EndSplineSet
EndChar

StartChar: onesuperior
Encoding: 128 185 127
Width: 150
VWidth: 0
Flags: HMW
LayerCount: 2
Fore
SplineSet
62 284 m 0
 62 313 64 318 29 304 c 0
 29 311 l 0
 89 343 l 0
 89 173 l 0
 89 141 93 142 119 141 c 0
 119 135 l 0
 32 135 l 0
 32 141 l 0
 58 142 62 141 62 173 c 0
 62 284 l 0
EndSplineSet
EndChar

StartChar: twosuperior
Encoding: 129 178 128
Width: 150
VWidth: 0
Flags: HMW
LayerCount: 2
Fore
SplineSet
143 182 m 0
 147 180 l 0
 129 135 l 0
 3 135 l 0
 3 140 l 0
 58 196 l 0
 110 248 106 288 89 305 c 0
 72 322 43 322 27 306 c 0
 20 299 15 292 7 275 c 0
 3 276 l 0
 6 291 14 308 27 321 c 0
 50 344 90 344 113 321 c 0
 131 303 143 267 90 214 c 0
 35 160 l 0
 113 160 l 0
 125 160 135 168 143 182 c 0
EndSplineSet
EndChar

StartChar: threesuperior
Encoding: 130 179 129
Width: 150
VWidth: 0
Flags: HMW
LayerCount: 2
Fore
SplineSet
16 294 m 0
 30 338 89 351 115 325 c 0
 133 307 131 274 96 251 c 0
 149 232 144 181 115 152 c 0
 90 127 23 123 14 141 c 0
 6 156 22 161 30 155 c 0
 51 139 79 132 99 152 c 0
 124 177 118 235 47 229 c 0
 47 234 l 0
 97 242 115 287 93 309 c 0
 72 330 36 324 20 291 c 0
 16 294 l 0
EndSplineSet
EndChar

StartChar: foursuperior
Encoding: 131 8308 130
Width: 150
VWidth: 0
Flags: HMW
LayerCount: 2
Fore
SplineSet
110 338 m 0
 123 338 l 0
 123 205 l 0
 152 205 l 0
 152 185 l 0
 123 185 l 0
 123 135 l 0
 100 135 l 0
 100 185 l 0
 9 185 l 0
 9 205 l 0
 110 338 l 0
100 205 m 0
 100 307 l 0
 22 205 l 0
 100 205 l 0
EndSplineSet
EndChar

StartChar: fraction
Encoding: 132 8260 131
Width: 83
VWidth: 0
Flags: HMW
LayerCount: 2
Fore
SplineSet
151 338 m 0
 178 338 l 0
 -59 -7 l 0
 -85 -7 l 0
 151 338 l 0
EndSplineSet
EndChar

StartChar: percent
Encoding: 136 37 135
Width: 416
VWidth: 0
Flags: HMW
LayerCount: 2
Fore
SplineSet
359 154 m 0
 347 166 326 166 306 146 c 0
 262 102 262 31 276 17 c 0
 288 5 310 5 330 25 c 0
 377 72 378 135 359 154 c 0
369 166 m 0
 399 136 383 57 347 21 c 0
 313 -13 267 -13 248 6 c 0
 222 32 223 104 270 151 c 0
 304 185 350 185 369 166 c 0
167 302 m 0
 156 308 147 313 138 319 c 0
 130 318 117 312 109 304 c 0
 65 260 59 185 76 168 c 0
 87 157 108 157 133 182 c 0
 163 212 177 265 167 302 c 0
271 305 m 0
 241 290 202 291 181 298 c 0
 188 263 180 207 140 167 c 0
 112 139 65 140 49 156 c 0
 21 184 21 253 71 303 c 0
 114 346 152 335 177 314 c 0
 191 301 256 294 288 338 c 0
 312 338 l 0
 127 -7 l 0
 104 -7 l 0
 271 305 l 0
EndSplineSet
EndChar

StartChar: perthousand
Encoding: 137 8240 136
Width: 500
VWidth: 0
Flags: HMW
LayerCount: 2
Fore
SplineSet
248 145 m 0
 213 110 204 53 212 26 c 0
 218 5 250 0 273 25 c 0
 307 60 319 105 310 135 c 0
 299 172 269 165 248 145 c 0
209 147 m 0
 234 175 293 195 317 157 c 0
 339 117 323 40 271 5 c 0
 238 -13 194 -15 178 26 c 0
 165 61 178 117 209 147 c 0
477 153 m 0
 465 165 444 165 424 145 c 0
 380 101 380 30 394 16 c 0
 406 5 428 5 448 25 c 0
 495 71 496 135 477 153 c 0
487 165 m 0
 517 135 501 56 465 20 c 0
 431 -12 385 -12 366 5 c 0
 340 31 341 103 388 150 c 0
 422 185 468 185 487 165 c 0
125 301 m 0
 114 306 103 313 97 323 c 0
 80 318 77 314 69 306 c 0
 32 268 32 193 43 179 c 0
 55 168 71 168 92 186 c 0
 122 216 135 264 125 301 c 0
230 306 m 0
 200 287 161 289 140 296 c 0
 144 261 140 211 100 171 c 0
 73 146 33 153 16 169 c 0
 -11 197 -10 266 30 309 c 0
 73 352 105 343 136 315 c 0
 150 301 208 293 240 337 c 0
 271 337 l 0
 69 -6 l 0
 46 -6 l 0
 230 306 l 0
EndSplineSet
EndChar

StartChar: degree
Encoding: 138 176 137
Width: 200
VWidth: 0
Flags: HMW
LayerCount: 2
Fore
SplineSet
60 306 m 0
 38 284 43 249 64 227 c 0
 86 205 117 205 139 227 c 0
 161 249 159 285 138 306 c 0
 115 328 82 328 60 306 c 0
46 212 m 0
 17 241 18 291 47 320 c 0
 77 349 124 348 153 319 c 0
 182 291 182 243 152 213 c 0
 124 184 75 183 46 212 c 0
EndSplineSet
EndChar

StartChar: periodcentered
Encoding: 139 183 138
Width: 125
VWidth: 0
Flags: HMW
LayerCount: 2
Fore
SplineSet
84 151 m 0
 95 140 95 122 84 111 c 0
 72 99 54 99 42 111 c 0
 31 122 31 140 42 151 c 0
 54 163 72 163 84 151 c 0
EndSplineSet
EndChar

StartChar: bullet
Encoding: 140 8226 139
Width: 175
VWidth: 0
Flags: HMW
LayerCount: 2
Fore
SplineSet
131 106 m 0
 107 82 67 82 43 106 c 0
 19 130 19 170 43 194 c 0
 67 218 107 218 131 194 c 0
 155 170 155 130 131 106 c 0
EndSplineSet
EndChar

StartChar: guilsinglleft
Encoding: 141 8249 140
Width: 166
VWidth: 0
Flags: HMW
LayerCount: 2
Fore
SplineSet
130 34 m 0
 144 17 134 18 128 18 c 0
 23 115 l 0
 128 211 l 0
 134 211 144 212 130 195 c 0
 70 114 l 0
 130 34 l 0
EndSplineSet
EndChar

StartChar: guilsinglright
Encoding: 142 8250 141
Width: 166
VWidth: 0
Flags: HMW
LayerCount: 2
Fore
SplineSet
37 34 m 0
 97 114 l 0
 37 195 l 0
 23 212 33 211 39 211 c 0
 144 115 l 0
 39 18 l 0
 33 18 23 17 37 34 c 0
EndSplineSet
EndChar

StartChar: guillemotleft
Encoding: 143 171 142
Width: 250
VWidth: 0
Flags: HMW
LayerCount: 2
Fore
SplineSet
123 195 m 0
 63 114 l 0
 123 34 l 0
 137 17 127 18 121 18 c 0
 16 115 l 0
 121 211 l 0
 127 211 137 212 123 195 c 0
217 18 m 0
 112 115 l 0
 217 211 l 0
 223 211 233 212 219 195 c 0
 159 114 l 0
 219 34 l 0
 233 17 223 18 217 18 c 0
EndSplineSet
EndChar

StartChar: guillemotright
Encoding: 144 187 143
Width: 250
VWidth: 0
Flags: HMW
LayerCount: 2
Fore
SplineSet
33 211 m 0
 138 115 l 0
 33 18 l 0
 27 18 17 17 31 34 c 0
 91 114 l 0
 31 195 l 0
 17 212 27 211 33 211 c 0
129 211 m 0
 234 115 l 0
 129 18 l 0
 123 18 113 17 127 34 c 0
 187 114 l 0
 127 195 l 0
 113 212 123 211 129 211 c 0
EndSplineSet
EndChar

StartChar: paragraph
Encoding: 145 182 144
Width: 226
VWidth: 0
Flags: HMW
LayerCount: 2
Fore
SplineSet
34 303 m 0
 58 327 90 331 106 331 c 0
 187 331 l 0
 187 307 l 0
 162 307 l 0
 162 -104 l 0
 138 -104 l 0
 138 307 l 0
 101 307 l 0
 101 -104 l 0
 77 -104 l 0
 77 113 l 0
 61 119 44 128 33 139 c 0
 -11 183 -11 258 34 303 c 0
EndSplineSet
EndChar

StartChar: section
Encoding: 146 167 145
Width: 250
VWidth: 0
Flags: HMW
LayerCount: 2
Fore
SplineSet
165 149 m 0
 140 174 97 206 71 180 c 0
 58 167 58 142 84 116 c 0
 109 91 152 59 178 85 c 0
 191 98 191 123 165 149 c 0
146 63 m 0
 189 25 206 -16 169 -54 c 0
 143 -79 92 -79 71 -58 c 0
 53 -40 52 -28 52 -19 c 0
 52 18 100 12 100 -17 c 0
 100 -39 75 -39 87 -51 c 0
 101 -65 134 -65 147 -52 c 0
 166 -33 166 -9 138 19 c 0
 115 42 91 53 65 79 c 0
 29 115 29 163 54 188 c 0
 68 202 85 205 103 202 c 0
 60 240 43 281 80 319 c 0
 106 344 152 344 173 323 c 0
 191 305 192 293 192 284 c 0
 192 247 144 253 144 282 c 0
 144 304 169 304 157 316 c 0
 143 330 115 330 102 317 c 0
 83 298 83 274 111 246 c 0
 134 223 158 212 184 186 c 0
 220 150 220 102 195 77 c 0
 181 63 164 60 146 63 c 0
EndSplineSet
EndChar

StartChar: plus
Encoding: 147 43 146
Width: 282
VWidth: 0
Flags: HMW
LayerCount: 2
Fore
SplineSet
125 256 m 0
 157 256 l 0
 157 146 l 0
 267 146 l 0
 267 114 l 0
 157 114 l 0
 157 4 l 0
 125 4 l 0
 125 114 l 0
 15 114 l 0
 15 146 l 0
 125 146 l 0
 125 256 l 0
EndSplineSet
EndChar

StartChar: multiply
Encoding: 148 215 147
Width: 282
VWidth: 0
Flags: HMW
LayerCount: 2
Fore
SplineSet
15 233 m 0
 38 255 l 0
 141 152 l 0
 244 255 l 0
 267 233 l 0
 164 130 l 0
 268 26 l 0
 246 3 l 0
 141 108 l 0
 36 3 l 0
 14 26 l 0
 118 130 l 0
 15 233 l 0
EndSplineSet
EndChar

StartChar: divide
Encoding: 149 247 148
Width: 282
VWidth: 0
Flags: HMW
LayerCount: 2
Fore
SplineSet
121 204 m 0
 109 216 109 234 121 246 c 0
 132 257 150 257 161 246 c 0
 173 234 173 216 161 204 c 0
 150 193 132 193 121 204 c 0
121 56 m 0
 132 67 150 67 161 56 c 0
 173 44 173 26 161 14 c 0
 150 3 132 3 121 14 c 0
 109 26 109 44 121 56 c 0
267 146 m 0
 267 114 l 0
 15 114 l 0
 15 146 l 0
 267 146 l 0
EndSplineSet
EndChar

StartChar: plusminus
Encoding: 150 177 149
Width: 282
VWidth: 0
Flags: HMW
LayerCount: 2
Fore
SplineSet
267 0 m 0
 15 0 l 0
 15 32 l 0
 267 32 l 0
 267 0 l 0
125 196 m 0
 125 306 l 0
 157 306 l 0
 157 196 l 0
 267 196 l 0
 267 164 l 0
 157 164 l 0
 157 54 l 0
 125 54 l 0
 125 164 l 0
 15 164 l 0
 15 196 l 0
 125 196 l 0
EndSplineSet
EndChar

StartChar: endash
Encoding: 151 8211 150
Width: 250
VWidth: 0
Flags: HMW
LayerCount: 2
Fore
SplineSet
-2 125 m 0
 253 125 l 0
 253 101 l 0
 -2 101 l 0
 -2 125 l 0
EndSplineSet
EndChar

StartChar: emdash
Encoding: 152 8212 151
Width: 500
VWidth: 0
Flags: HMW
LayerCount: 2
Fore
SplineSet
503 125 m 0
 503 101 l 0
 -4 101 l 0
 -4 125 l 0
 503 125 l 0
EndSplineSet
EndChar

StartChar: minus
Encoding: 153 8722 152
Width: 282
VWidth: 0
Flags: HMW
LayerCount: 2
Fore
SplineSet
15 114 m 0
 15 146 l 0
 267 146 l 0
 267 114 l 0
 15 114 l 0
EndSplineSet
EndChar

StartChar: bracketleft
Encoding: 154 91 153
Width: 166
VWidth: 0
Flags: HMW
LayerCount: 2
Fore
SplineSet
83 -9 m 0
 83 -61 80 -59 150 -59 c 0
 150 -78 l 0
 44 -78 l 0
 44 331 l 0
 150 331 l 0
 150 312 l 0
 80 312 83 314 83 262 c 0
 83 -9 l 0
EndSplineSet
EndChar

StartChar: bracketright
Encoding: 155 93 154
Width: 166
VWidth: 0
Flags: HMW
LayerCount: 2
Fore
SplineSet
17 312 m 0
 17 331 l 0
 123 331 l 0
 123 -78 l 0
 17 -78 l 0
 17 -59 l 0
 87 -59 84 -61 84 -9 c 0
 84 262 l 0
 84 314 87 312 17 312 c 0
EndSplineSet
EndChar

StartChar: dagger
Encoding: 156 8224 155
Width: 250
VWidth: 0
Flags: HMW
LayerCount: 2
Fore
SplineSet
49 244 m 0
 72 244 70 228 104 228 c 0
 118 228 l 0
 118 247 l 0
 118 265 78 338 124 338 c 0
 170 338 129 265 129 247 c 0
 129 228 l 0
 143 228 l 0
 177 228 175 244 198 244 c 0
 228 244 228 200 198 200 c 0
 175 200 177 216 143 216 c 0
 129 216 l 0
 129 179 132 151 150 126 c 0
 135 92 129 6 129 4 c 0
 129 -75 l 0
 118 -75 l 0
 118 4 l 0
 118 6 112 92 97 126 c 0
 115 151 118 179 118 216 c 0
 104 216 l 0
 70 216 72 200 49 200 c 0
 19 200 19 244 49 244 c 0
EndSplineSet
EndChar

StartChar: daggerdbl
Encoding: 157 8225 156
Width: 250
VWidth: 0
Flags: HMW
LayerCount: 2
Fore
SplineSet
49 244 m 0
 72 244 70 228 104 228 c 0
 118 228 l 0
 118 247 l 0
 118 265 78 338 124 338 c 0
 170 338 129 265 129 247 c 0
 129 228 l 0
 143 228 l 0
 177 228 175 244 198 244 c 0
 228 244 228 200 198 200 c 0
 175 200 177 216 143 216 c 0
 129 216 l 0
 129 188 127 161 150 131 c 0
 127 101 129 74 129 46 c 0
 143 46 l 0
 177 46 175 62 198 62 c 0
 228 62 228 18 198 18 c 0
 175 18 177 34 143 34 c 0
 129 34 l 0
 129 15 l 0
 129 -3 170 -76 124 -76 c 0
 78 -76 118 -3 118 15 c 0
 118 34 l 0
 104 34 l 0
 70 34 72 18 49 18 c 0
 19 18 19 62 49 62 c 0
 72 62 70 46 104 46 c 0
 118 46 l 0
 118 74 120 101 97 131 c 0
 120 161 118 188 118 216 c 0
 104 216 l 0
 70 216 72 200 49 200 c 0
 19 200 19 244 49 244 c 0
EndSplineSet
EndChar

StartChar: braceleft
Encoding: 158 123 157
Width: 240
VWidth: 0
Flags: HMW
LayerCount: 2
Fore
SplineSet
89 164 m 0
 89 276 l 0
 89 282 94 314 107 327 c 0
 121 341 141 341 171 341 c 0
 125 333 126 301 126 277 c 0
 126 179 l 0
 126 157 113 135 88 129 c 0
 113 123 126 101 126 79 c 0
 126 -19 l 0
 126 -43 125 -75 171 -83 c 0
 141 -83 121 -83 107 -69 c 0
 94 -56 89 -24 89 -18 c 0
 89 94 l 0
 89 111 74 124 55 129 c 0
 74 134 89 147 89 164 c 0
EndSplineSet
EndChar

StartChar: braceright
Encoding: 159 125 158
Width: 240
VWidth: 0
Flags: HMW
LayerCount: 2
Fore
SplineSet
152 -18 m 0
 152 -24 147 -56 134 -69 c 0
 120 -83 100 -83 70 -83 c 0
 116 -75 115 -43 115 -19 c 0
 115 79 l 0
 115 101 128 123 153 129 c 0
 128 135 115 157 115 179 c 0
 115 277 l 0
 115 301 116 333 70 341 c 0
 100 341 120 341 134 327 c 0
 147 314 152 282 152 276 c 0
 152 164 l 0
 152 147 167 134 186 129 c 0
 167 124 152 111 152 94 c 0
 152 -18 l 0
EndSplineSet
EndChar

StartChar: at
Encoding: 160 64 159
Width: 460
VWidth: 0
Flags: HMW
LayerCount: 2
Fore
SplineSet
340 -41 m 0
 242 -99 130 -87 61 -18 c 0
 -20 63 -23 173 66 262 c 0
 162 358 295 358 362 291 c 0
 447 206 400 86 362 47 c 0
 328 14 258 4 247 64 c 0
 222 23 161 7 133 35 c 0
 104 64 109 149 164 204 c 0
 208 248 263 246 275 201 c 0
 282 228 l 0
 322 228 l 0
 282 72 l 0
 272 35 327 39 349 62 c 0
 392 104 420 207 347 280 c 0
 292 335 179 334 104 259 c 0
 29 184 33 46 89 -10 c 0
 153 -74 269 -69 332 -24 c 0
 340 -41 l 0
245 86 m 0
 251 97 267 162 267 170 c 0
 266 208 244 237 196 189 c 0
 150 143 157 62 167 52 c 0
 188 31 223 47 245 86 c 0
EndSplineSet
EndChar

StartChar: ampersand
Encoding: 161 38 160
Width: 389
VWidth: 0
Flags: HMW
LayerCount: 2
Fore
SplineSet
200 53 m 0
 170 89 134 148 123 170 c 0
 55 130 56 69 86 39 c 0
 116 9 161 22 200 53 c 0
152 312 m 0
 125 285 144 226 156 203 c 0
 212 218 236 281 208 309 c 0
 192 325 165 325 152 312 c 0
246 72 m 0
 268 51 295 30 318 30 c 0
 347 30 360 43 369 56 c 0
 375 49 l 0
 356 14 337 -7 302 -7 c 0
 269 -7 235 12 213 40 c 0
 169 -7 84 -27 40 17 c 0
 14 43 10 98 57 145 c 0
 78 166 98 174 116 186 c 0
 97 234 90 281 125 316 c 0
 154 345 203 345 228 320 c 0
 268 280 241 211 164 190 c 0
 179 161 207 118 235 87 c 0
 289 144 302 205 253 204 c 0
 253 213 l 0
 357 213 l 0
 357 204 l 0
 306 202 306 138 246 72 c 0
EndSplineSet
EndChar

StartChar: asciicircum
Encoding: 162 94 161
Width: 234
VWidth: 0
Flags: HMW
LayerCount: 2
Fore
SplineSet
4 126 m 0
 96 327 l 0
 131 327 l 0
 229 125 l 0
 191 125 l 0
 113 291 l 0
 43 126 l 0
 4 126 l 0
EndSplineSet
EndChar

StartChar: bar
Encoding: 163 124 162
Width: 100
VWidth: 0
Flags: HMW
LayerCount: 2
Fore
SplineSet
34 0 m 0
 34 341 l 0
 66 341 l 0
 66 0 l 0
 34 0 l 0
EndSplineSet
EndChar

StartChar: brokenbar
Encoding: 164 166 163
Width: 100
VWidth: 0
Flags: HMW
LayerCount: 2
Fore
SplineSet
34 138 m 0
 66 138 l 0
 66 0 l 0
 34 0 l 0
 34 138 l 0
34 203 m 0
 34 341 l 0
 66 341 l 0
 66 203 l 0
 34 203 l 0
EndSplineSet
EndChar

StartChar: logicalnot
Encoding: 165 172 164
Width: 282
VWidth: 0
Flags: HMW
LayerCount: 2
Fore
SplineSet
267 200 m 0
 267 58 l 0
 235 58 l 0
 235 168 l 0
 15 168 l 0
 15 200 l 0
 267 200 l 0
EndSplineSet
EndChar

StartChar: copyright
Encoding: 166 169 165
Width: 380
VWidth: 0
Flags: HMW
LayerCount: 2
Fore
SplineSet
88 268 m 0
 34 214 34 117 88 63 c 0
 146 5 234 5 292 63 c 0
 346 117 346 214 292 268 c 0
 234 326 146 326 88 268 c 0
310 288 m 0
 376 222 376 109 310 43 c 0
 243 -24 137 -24 70 43 c 0
 4 109 4 222 70 288 c 0
 137 355 243 355 310 288 c 0
264 101 m 0
 225 55 159 58 128 89 c 0
 92 126 90 198 129 237 c 0
 160 268 213 267 262 246 c 0
 262 199 l 0
 245 199 l 0
 243 209 243 222 231 234 c 0
 214 251 183 252 165 234 c 0
 135 204 135 127 163 99 c 0
 186 76 230 75 256 112 c 0
 264 101 l 0
EndSplineSet
EndChar

StartChar: registered
Encoding: 167 174 166
Width: 380
VWidth: 0
Flags: HMW
LayerCount: 2
Fore
SplineSet
310 288 m 0
 376 222 376 109 310 43 c 0
 243 -24 137 -24 70 43 c 0
 4 109 4 222 70 288 c 0
 137 355 243 355 310 288 c 0
292 268 m 0
 234 326 146 326 88 268 c 0
 34 214 34 117 88 63 c 0
 146 5 234 5 292 63 c 0
 346 117 346 214 292 268 c 0
165 223 m 0
 165 173 l 0
 181 173 206 174 217 185 c 0
 231 199 231 227 221 237 c 0
 212 246 205 250 187 250 c 0
 165 250 165 247 165 223 c 0
165 107 m 0
 165 86 166 80 189 80 c 0
 189 71 l 0
 111 71 l 0
 111 80 l 0
 135 80 136 86 136 107 c 0
 136 225 l 0
 136 246 135 252 111 252 c 0
 111 261 l 0
 203 261 l 0
 211 261 237 257 246 248 c 0
 270 224 262 181 216 168 c 0
 252 149 246 95 279 80 c 0
 279 71 l 0
 245 71 l 0
 222 91 214 139 192 161 c 0
 165 161 l 0
 165 107 l 0
EndSplineSet
EndChar

StartChar: trademark
Encoding: 168 8482 167
Width: 490
VWidth: 0
Flags: HMW
LayerCount: 2
Fore
SplineSet
264 160 m 0
 264 143 269 141 288 141 c 0
 288 128 l 0
 224 128 l 0
 224 141 l 0
 238 141 249 141 249 160 c 0
 249 306 l 0
 249 320 248 320 230 320 c 0
 230 331 l 0
 291 331 l 0
 350 186 l 0
 415 331 l 0
 479 331 l 0
 479 320 l 0
 456 320 451 315 451 301 c 0
 451 156 l 0
 451 145 453 141 474 141 c 0
 474 128 l 0
 391 128 l 0
 391 141 l 0
 416 141 418 145 418 156 c 0
 418 302 l 0
 344 128 l 0
 338 128 l 0
 264 306 l 0
 264 160 l 0
185 282 m 0
 185 316 165 316 125 316 c 0
 125 162 l 0
 126 140 123 141 155 141 c 0
 155 128 l 0
 59 128 l 0
 59 141 l 0
 85 141 91 141 92 162 c 0
 92 316 l 0
 48 315 35 317 35 282 c 0
 21 282 l 0
 21 331 l 0
 198 331 l 0
 198 282 l 0
 185 282 l 0
EndSplineSet
EndChar

StartChar: ordmasculine
Encoding: 169 186 168
Width: 155
VWidth: 0
Flags: HMW
LayerCount: 2
Fore
SplineSet
104 316 m 0
 89 331 64 331 49 316 c 0
 30 297 32 240 55 216 c 0
 70 201 95 201 110 216 c 0
 129 235 127 292 104 316 c 0
131 318 m 0
 168 281 145 230 127 212 c 0
 103 188 54 188 28 214 c 0
 -9 251 14 302 32 320 c 0
 56 344 105 344 131 318 c 0
14 170 m 0
 145 170 l 0
 145 153 l 0
 14 153 l 0
 14 170 l 0
EndSplineSet
EndChar

StartChar: ordfeminine
Encoding: 170 170 169
Width: 138
VWidth: 0
Flags: HMW
LayerCount: 2
Fore
SplineSet
43 255 m 0
 35 247 35 225 44 216 c 0
 52 208 76 211 87 224 c 0
 87 277 l 0
 73 271 56 268 43 255 c 0
139 219 m 0
 139 210 l 0
 122 186 87 189 88 216 c 0
 63 190 32 188 16 204 c 0
 5 215 5 240 20 255 c 0
 38 273 62 277 87 285 c 0
 87 303 88 318 83 323 c 0
 72 334 56 334 45 323 c 0
 37 315 53 291 26 291 c 0
 12 291 9 308 21 320 c 0
 44 343 88 343 105 326 c 0
 114 317 115 303 115 295 c 0
 115 232 l 0
 115 222 111 198 139 219 c 0
139 170 m 0
 139 153 l 0
 8 153 l 0
 8 170 l 0
 139 170 l 0
EndSplineSet
EndChar

StartChar: numbersign
Encoding: 171 35 170
Width: 250
VWidth: 0
Flags: HMW
LayerCount: 2
Fore
SplineSet
94 331 m 0
 123 331 l 0
 107 230 l 0
 168 230 l 0
 184 331 l 0
 213 331 l 0
 197 230 l 0
 248 230 l 0
 248 200 l 0
 192 200 l 0
 182 137 l 0
 236 137 l 0
 236 107 l 0
 178 107 l 0
 161 0 l 0
 133 0 l 0
 149 107 l 0
 88 107 l 0
 71 0 l 0
 43 0 l 0
 59 107 l 0
 3 107 l 0
 3 137 l 0
 64 137 l 0
 74 200 l 0
 15 200 l 0
 15 230 l 0
 78 230 l 0
 94 331 l 0
103 200 m 0
 92 137 l 0
 154 137 l 0
 164 200 l 0
 103 200 l 0
EndSplineSet
EndChar

StartChar: currency
Encoding: 172 164 171
Width: 250
VWidth: 0
Flags: HMW
LayerCount: 2
Fore
SplineSet
201 79 m 0
 157 43 95 43 51 78 c 0
 23 50 l 0
 1 73 l 0
 28 100 l 0
 -4 152 -4 206 29 249 c 0
 1 277 l 0
 23 300 l 0
 51 272 l 0
 95 307 157 307 201 271 c 0
 230 300 l 0
 252 277 l 0
 223 248 l 0
 256 211 256 138 223 102 c 0
 252 73 l 0
 230 50 l 0
 201 79 l 0
190 238 m 0
 154 274 98 274 62 238 c 0
 27 203 27 147 62 112 c 0
 98 76 154 76 190 112 c 0
 225 147 225 203 190 238 c 0
EndSplineSet
EndChar

StartChar: yen
Encoding: 173 165 172
Width: 250
VWidth: 0
Flags: HMW
LayerCount: 2
Fore
SplineSet
174 271 m 0
 182 287 206 324 156 320 c 0
 156 331 l 0
 251 331 l 0
 251 320 l 0
 216 312 208 292 197 271 c 0
 144 164 l 0
 214 164 l 0
 214 142 l 0
 136 142 l 0
 136 115 l 0
 214 115 l 0
 214 93 l 0
 136 93 l 0
 136 60 l 0
 136 17 142 11 180 11 c 0
 180 0 l 0
 49 0 l 0
 49 11 l 0
 88 11 94 17 94 60 c 0
 94 93 l 0
 17 93 l 0
 17 115 l 0
 94 115 l 0
 94 142 l 0
 17 142 l 0
 17 164 l 0
 86 164 l 0
 32 271 l 0
 24 287 12 321 -22 320 c 0
 -22 331 l 0
 96 331 l 0
 96 320 l 0
 48 323 73 283 80 268 c 0
 126 174 l 0
 174 271 l 0
EndSplineSet
EndChar

StartChar: cent
Encoding: 174 162 173
Width: 250
VWidth: 0
Flags: HMW
LayerCount: 2
Fore
SplineSet
153 206 m 0
 136 219 108 214 90 196 c 0
 51 157 59 84 100 49 c 0
 153 206 l 0
176 221 m 0
 186 215 196 210 206 200 c 0
 240 166 166 129 166 191 c 0
 115 40 l 0
 170 16 202 56 216 81 c 0
 224 77 l 0
 218 62 207 38 192 22 c 0
 163 -6 133 -9 101 -2 c 0
 77 -69 l 0
 59 -69 l 0
 84 5 l 0
 12 53 11 148 64 201 c 0
 96 233 139 232 160 226 c 0
 182 290 l 0
 200 290 l 0
 176 221 l 0
EndSplineSet
EndChar

StartChar: dollar
Encoding: 175 36 174
Width: 250
VWidth: 0
Flags: HMW
LayerCount: 2
Fore
SplineSet
116 205 m 0
 116 318 l 0
 58 300 57 251 81 227 c 0
 93 215 104 212 116 205 c 0
132 16 m 0
 206 23 198 94 173 119 c 0
 157 135 143 139 132 147 c 0
 132 16 l 0
132 334 m 0
 165 334 189 329 217 304 c 0
 217 247 l 0
 208 247 l 0
 200 291 177 320 132 320 c 0
 132 196 l 0
 151 186 178 177 203 152 c 0
 236 119 236 60 203 27 c 0
 185 9 155 0 132 0 c 0
 132 -44 l 0
 116 -44 l 0
 116 0 l 0
 81 -2 52 6 22 25 c 0
 22 90 l 0
 31 90 l 0
 35 52 55 15 116 16 c 0
 116 155 l 0
 93 167 77 171 53 195 c 0
 20 228 20 275 51 306 c 0
 75 330 94 330 116 334 c 0
 116 364 l 0
 132 364 l 0
 132 334 l 0
EndSplineSet
EndChar

StartChar: less
Encoding: 187 60 186
Width: 282
VWidth: 0
Flags: HMW
LayerCount: 2
Fore
SplineSet
267 0 m 0
 14 117 l 0
 14 144 l 0
 267 261 l 0
 267 228 l 0
 56 131 l 0
 267 33 l 0
 267 0 l 0
EndSplineSet
EndChar

StartChar: greater
Encoding: 188 62 187
Width: 282
VWidth: 0
Flags: HMW
LayerCount: 2
Fore
SplineSet
267 117 m 0
 14 0 l 0
 14 33 l 0
 225 131 l 0
 14 228 l 0
 14 261 l 0
 267 144 l 0
 267 117 l 0
EndSplineSet
EndChar

StartChar: mu
Encoding: 189 181 188
Width: 250
VWidth: 0
Flags: HMW
LayerCount: 2
Fore
SplineSet
168 170 m 0
 168 215 171 213 135 213 c 0
 135 224 l 0
 210 224 l 0
 210 77 l 0
 210 43 204 26 240 30 c 0
 240 21 l 0
 168 -6 l 0
 168 35 l 0
 134 -14 77 -17 49 18 c 0
 45 -33 65 -40 64 -81 c 0
 64 -124 18 -124 18 -81 c 0
 18 -59 38 -16 38 53 c 0
 38 170 l 0
 38 215 41 213 5 213 c 0
 5 224 l 0
 80 224 l 0
 80 77 l 0
 80 61 80 45 90 35 c 0
 106 19 150 23 168 54 c 0
 168 170 l 0
EndSplineSet
EndChar

StartChar: slash
Encoding: 190 47 189
Width: 139
VWidth: 0
Flags: HMW
LayerCount: 2
Fore
SplineSet
122 341 m 0
 151 341 l 0
 22 -54 l 0
 -7 -54 l 0
 122 341 l 0
EndSplineSet
EndChar

StartChar: backslash
Encoding: 191 92 190
Width: 139
VWidth: 0
Flags: HMW
LayerCount: 2
Fore
SplineSet
180 0 m 0
 151 0 l 0
 -41 341 l 0
 -12 341 l 0
 180 0 l 0
EndSplineSet
EndChar

StartChar: AE
Encoding: 192 198 191
Width: 444
VWidth: 0
Flags: HMW
LayerCount: 2
Fore
SplineSet
47 45 m 0
 177 294 l 0
 188 314 158 322 138 320 c 0
 138 331 l 0
 417 331 l 0
 417 256 l 0
 405 256 l 0
 401 293 384 308 358 308 c 0
 280 308 l 0
 248 308 253 304 253 262 c 0
 253 182 l 0
 328 182 l 0
 358 182 377 200 377 230 c 0
 389 230 l 0
 389 111 l 0
 377 111 l 0
 377 140 358 159 328 159 c 0
 253 159 l 0
 253 69 l 0
 253 27 248 23 280 23 c 0
 347 23 l 0
 374 23 408 43 420 85 c 0
 435 85 l 0
 413 0 l 0
 159 0 l 0
 159 11 l 0
 189 11 202 15 202 60 c 0
 202 127 l 0
 111 127 l 0
 79 62 l 0
 72 43 54 9 103 11 c 0
 103 0 l 0
 3 0 l 0
 3 11 l 0
 33 12 41 33 47 45 c 0
202 150 m 0
 202 296 l 0
 123 150 l 0
 202 150 l 0
EndSplineSet
EndChar

StartChar: OE
Encoding: 193 338 192
Width: 444
VWidth: 0
Flags: HMW
LayerCount: 2
Fore
SplineSet
210 0 m 0
 151 -10 107 -4 61 42 c 0
 -6 109 -6 222 62 290 c 0
 102 330 144 342 209 331 c 0
 419 331 l 0
 419 256 l 0
 407 256 l 0
 403 293 386 308 360 308 c 0
 287 308 l 0
 265 308 260 304 260 262 c 0
 260 182 l 0
 336 182 l 0
 366 182 385 200 385 230 c 0
 397 230 l 0
 397 111 l 0
 385 111 l 0
 385 140 366 159 336 159 c 0
 260 159 l 0
 260 69 l 0
 260 27 265 23 287 23 c 0
 351 23 l 0
 378 23 412 43 424 85 c 0
 439 85 l 0
 417 0 l 0
 210 0 l 0
209 43 m 0
 209 287 l 0
 209 309 202 315 169 315 c 0
 148 315 126 311 106 290 c 0
 52 237 52 94 106 40 c 0
 126 19 148 15 169 15 c 0
 202 15 209 21 209 43 c 0
EndSplineSet
EndChar

StartChar: Eth
Encoding: 194 208 193
Width: 361
VWidth: 0
Flags: HMW
LayerCount: 2
Fore
SplineSet
8 153 m 0
 8 183 l 0
 158 183 l 0
 158 153 l 0
 8 153 l 0
EndSplineSet
Refer: 67 68 N 1 0 0 1 0 0 0
EndChar

StartChar: Thorn
Encoding: 195 222 194
Width: 278
VWidth: 0
Flags: HMW
LayerCount: 2
Fore
SplineSet
109 249 m 0
 101 241 102 231 102 208 c 0
 102 110 l 0
 131 108 172 103 201 132 c 0
 227 158 227 208 197 238 c 0
 175 260 120 260 109 249 c 0
146 11 m 0
 146 0 l 0
 6 0 l 0
 6 11 l 0
 45 11 51 17 51 60 c 0
 51 271 l 0
 51 314 45 320 6 320 c 0
 6 331 l 0
 147 331 l 0
 147 320 l 0
 108 320 102 314 102 272 c 0
 127 277 153 277 166 277 c 0
 170 277 218 273 248 243 c 0
 279 212 279 158 245 124 c 0
 206 85 152 83 102 90 c 0
 102 60 l 0
 102 17 108 11 146 11 c 0
EndSplineSet
EndChar

StartChar: Eng
Encoding: 196 330 195
Width: 350
VWidth: 0
Flags: HMW
LayerCount: 2
Fore
SplineSet
109 51 m 0
 109 35 112 24 119 17 c 0
 125 11 133 9 145 9 c 0
 157 9 l 0
 157 0 l 0
 11 0 l 0
 11 9 l 0
 23 9 l 0
 33 9 44 12 51 19 c 0
 52 21 54 23 55 25 c 0
 57 30 58 41 58 58 c 0
 58 270 l 0
 58 291 57 305 49 313 c 0
 44 318 35 321 22 321 c 0
 11 321 l 0
 11 331 l 0
 109 331 l 0
 109 262 l 0
 119 277 125 290 135 301 c 0
 179 344 250 344 290 304 c 0
 348 245 345 75 276 16 c 0
 245 -10 207 -18 180 8 c 0
 166 22 162 46 175 60 c 0
 184 69 199 68 207 60 c 0
 219 48 219 21 228 15 c 0
 237 8 250 11 258 19 c 0
 279 40 279 100 279 150 c 0
 279 204 276 263 247 292 c 0
 220 319 172 315 141 284 c 0
 128 271 121 255 109 235 c 0
 109 51 l 0
EndSplineSet
EndChar

StartChar: Hbar
Encoding: 197 294 196
Width: 361
VWidth: 0
Flags: HMW
LayerCount: 2
Fore
SplineSet
10 271 m 0
 353 271 l 0
 353 257 l 0
 10 257 l 0
 10 271 l 0
EndSplineSet
Refer: 71 72 N 1 0 0 1 0 0 0
EndChar

StartChar: Lslash
Encoding: 198 321 197
Width: 305
VWidth: 0
Flags: HMW
LayerCount: 2
Fore
SplineSet
103 62 m 0
 103 20 96 23 148 23 c 0
 212 23 l 0
 224 23 268 27 285 85 c 0
 300 85 l 0
 278 0 l 0
 7 0 l 0
 7 11 l 0
 58 11 52 37 52 60 c 0
 52 143 l 0
 6 121 l 0
 6 145 l 0
 52 168 l 0
 52 271 l 0
 52 314 46 320 7 320 c 0
 7 331 l 0
 148 331 l 0
 148 320 l 0
 109 320 103 314 103 271 c 0
 103 203 l 0
 181 242 l 0
 181 216 l 0
 103 177 l 0
 103 62 l 0
EndSplineSet
EndChar

StartChar: Oslash
Encoding: 199 216 198
Width: 361
VWidth: 0
Flags: HMW
LayerCount: 2
Fore
SplineSet
113 288 m 0
 58 233 63 113 98 61 c 0
 251 289 l 0
 212 328 152 327 113 288 c 0
253 43 m 0
 308 98 299 235 265 274 c 0
 111 44 l 0
 152 4 214 4 253 43 c 0
283 302 m 0
 365 233 366 111 297 42 c 0
 232 -23 142 -16 96 20 c 0
 56 -40 l 0
 32 -40 l 0
 79 32 l 0
 -4 107 0 220 69 289 c 0
 134 354 215 347 266 313 c 0
 302 367 l 0
 326 367 l 0
 283 302 l 0
EndSplineSet
EndChar

StartChar: Tbar
Encoding: 200 358 199
Width: 305
VWidth: 0
Flags: HMW
LayerCount: 2
Fore
SplineSet
229 253 m 0
 229 230 l 0
 77 134 l 0
 77 157 l 0
 229 253 l 0
EndSplineSet
Refer: 83 84 N 1 0 0 1 0 0 0
EndChar

StartChar: cedilla
Encoding: 210 184 209
Width: 166
VWidth: 0
Flags: HMW
LayerCount: 2
Fore
SplineSet
89 9 m 0
 75 -31 l 0
 122 -28 131 -49 131 -61 c 0
 131 -99 91 -108 67 -108 c 0
 59 -108 38 -106 27 -98 c 0
 34 -82 l 0
 56 -91 93 -95 93 -69 c 0
 93 -52 74 -46 53 -53 c 0
 48 -51 l 0
 72 10 l 0
 89 9 l 0
EndSplineSet
EndChar

StartChar: Euro
Encoding: 219 8364 215
Width: 250
VWidth: 0
Flags: HMW
LayerCount: 2
Fore
SplineSet
19 140 m 0
 -5 140 l 0
 0 159 l 0
 18 159 l 0
 18 163 l 0
 18 168 18 174 18 180 c 0
 -5 180 l 0
 0 199 l 0
 20 199 l 0
 26 239 42 277 68 303 c 0
 110 346 176 347 235 316 c 0
 235 243 l 0
 225 243 l 0
 223 270 215 291 202 304 c 0
 178 327 132 328 107 303 c 0
 83 279 72 238 68 199 c 0
 212 199 l 0
 207 180 l 0
 66 180 l 0
 66 173 66 166 66 159 c 0
 200 159 l 0
 195 140 l 0
 66 140 l 0
 68 100 78 57 102 33 c 0
 130 4 178 9 208 39 c 0
 217 47 224 57 233 69 c 0
 241 64 l 0
 231 48 221 35 210 24 c 0
 171 -15 102 -15 63 23 c 0
 36 50 22 92 19 140 c 0
EndSplineSet
EndChar

StartChar: exclamdown
Encoding: 220 161 216
Width: 166
VWidth: 0
Flags: HMW
LayerCount: 2
Fore
SplineSet
62 -29 m 0
 79 140 l 0
 89 140 l 0
 106 -29 l 0
 108 -42 114 -91 104 -101 c 0
 93 -112 75 -112 64 -101 c 0
 54 -91 60 -42 62 -29 c 0
104 179 m 0
 93 168 75 168 64 179 c 0
 52 191 52 209 64 221 c 0
 75 232 93 232 104 221 c 0
 116 209 116 191 104 179 c 0
EndSplineSet
EndChar

StartChar: dotlessj
Encoding: 221 567 217
Width: 139
VWidth: 0
Flags: HMW
LayerCount: 2
Fore
SplineSet
21 189 m 0
 21 200 l 0
 101 229 l 0
 101 17 l 0
 101 -48 83 -109 21 -109 c 0
 -55 -109 -28 -20 15 -71 c 0
 33 -92 59 -105 59 -32 c 0
 59 149 l 0
 60 196 56 197 21 189 c 0
EndSplineSet
EndChar

StartChar: kgreenlandic
Encoding: 222 312 218
Width: 250
VWidth: 0
Flags: HMW
LayerCount: 2
Fore
SplineSet
82 229 m 0
 82 131 l 0
 144 185 l 0
 172 209 167 215 139 215 c 0
 139 224 l 0
 237 224 l 0
 237 215 l 0
 198 218 176 194 161 181 c 0
 120 142 l 0
 200 35 l 0
 209 23 233 10 250 9 c 0
 250 0 l 0
 142 0 l 0
 142 9 l 0
 162 9 162 20 159 25 c 0
 82 125 l 0
 82 57 l 0
 82 15 88 9 118 9 c 0
 118 0 l 0
 1 0 l 0
 1 9 l 0
 34 9 40 15 40 57 c 0
 40 172 l 0
 40 202 42 203 1 190 c 0
 1 199 l 0
 82 229 l 0
EndSplineSet
EndChar

StartChar: germandbls
Encoding: 223 223 219
Width: 250
VWidth: 0
Flags: HMW
LayerCount: 2
Fore
SplineSet
40 218 m 0
 40 242 41 288 70 317 c 0
 99 346 162 346 193 315 c 0
 224 284 224 215 151 187 c 0
 171 183 196 171 209 158 c 0
 243 124 243 57 206 20 c 0
 173 -13 133 -14 112 7 c 0
 80 39 118 70 139 49 c 0
 149 39 136 17 157 11 c 0
 164 9 170 15 175 20 c 0
 188 33 194 129 166 157 c 0
 152 171 152 175 119 175 c 0
 107 175 107 193 119 193 c 0
 130 193 144 196 155 207 c 0
 177 229 172 295 155 312 c 0
 141 326 115 326 99 310 c 0
 83 294 82 287 82 256 c 0
 82 0 l 0
 6 0 l 0
 6 9 l 0
 46 9 40 33 40 59 c 0
 40 218 l 0
EndSplineSet
EndChar

StartChar: ae
Encoding: 224 230 220
Width: 333
VWidth: 0
Flags: HMW
LayerCount: 2
Fore
SplineSet
151 34 m 0
 120 0 62 -19 35 8 c 0
 11 32 11 69 34 92 c 0
 56 114 100 131 137 144 c 0
 136 182 141 196 129 208 c 0
 116 221 89 221 73 205 c 0
 61 193 83 153 48 153 c 0
 20 153 23 186 38 201 c 0
 69 232 138 240 167 206 c 0
 196 235 255 235 282 208 c 0
 299 191 308 164 307 139 c 0
 176 139 l 0
 176 106 172 67 196 43 c 0
 224 15 279 32 307 80 c 0
 315 76 l 0
 308 61 301 43 284 26 c 0
 255 -3 188 -32 151 34 c 0
147 46 m 0
 144 55 142 63 140 72 c 0
 136 90 137 111 137 130 c 0
 122 121 86 114 73 101 c 0
 55 83 54 48 70 33 c 0
 87 16 123 17 147 46 c 0
259 156 m 0
 258 161 258 191 246 203 c 0
 234 215 205 215 192 202 c 0
 183 193 176 166 176 156 c 0
 259 156 l 0
EndSplineSet
EndChar

StartChar: oe
Encoding: 225 339 221
Width: 361
VWidth: 0
Flags: HMW
LayerCount: 2
Fore
SplineSet
148 200 m 0
 131 217 97 217 81 201 c 0
 51 171 51 64 90 25 c 0
 107 8 132 8 150 26 c 0
 176 52 176 172 148 200 c 0
338 137 m 0
 209 137 l 0
 209 117 210 69 235 44 c 0
 252 27 292 27 317 52 c 0
 327 62 332 71 337 78 c 0
 345 74 l 0
 338 59 328 38 312 22 c 0
 277 -13 220 -22 189 39 c 0
 150 -21 85 -14 47 23 c 0
 3 67 3 153 52 202 c 0
 83 233 149 246 192 192 c 0
 225 238 283 238 312 209 c 0
 333 188 339 156 338 137 c 0
290 154 m 0
 290 169 289 189 277 201 c 0
 262 216 239 216 223 200 c 0
 211 188 209 171 209 154 c 0
 290 154 l 0
EndSplineSet
EndChar

StartChar: eth
Encoding: 226 240 222
Width: 250
VWidth: 0
Flags: HMW
LayerCount: 2
Fore
SplineSet
170 25 m 0
 202 57 198 157 162 193 c 0
 138 217 101 216 81 196 c 0
 45 160 56 61 90 27 c 0
 113 4 150 5 170 25 c 0
146 226 m 0
 137 239 122 259 115 268 c 0
 50 246 l 0
 35 271 l 0
 50 277 l 0
 59 272 l 0
 99 286 l 0
 85 299 61 319 43 332 c 0
 71 346 l 0
 99 330 116 314 134 298 c 0
 200 320 l 0
 215 295 l 0
 200 289 l 0
 191 294 l 0
 152 280 l 0
 173 252 196 226 215 192 c 0
 249 131 237 61 198 22 c 0
 158 -18 86 -15 48 23 c 0
 1 70 6 150 53 197 c 0
 80 224 115 233 146 226 c 0
EndSplineSet
EndChar

StartChar: thorn
Encoding: 227 254 223
Width: 250
VWidth: 0
Flags: HMW
LayerCount: 2
Fore
SplineSet
86 38 m 0
 113 6 147 5 169 27 c 0
 202 60 202 154 173 183 c 0
 149 207 112 208 86 174 c 0
 86 38 l 0
86 -52 m 0
 86 -94 92 -100 125 -100 c 0
 125 -109 l 0
 5 -109 l 0
 5 -100 l 0
 38 -100 44 -94 44 -52 c 0
 44 266 l 0
 44 311 47 309 5 309 c 0
 5 318 l 0
 86 341 l 0
 86 191 l 0
 122 237 176 240 207 209 c 0
 248 168 248 73 204 29 c 0
 162 -13 118 -15 86 16 c 0
 86 -52 l 0
EndSplineSet
EndChar

StartChar: eng
Encoding: 228 331 224
Width: 250
VWidth: 0
Flags: HMW
LayerCount: 2
Fore
SplineSet
212 5 m 0
 212 -33 203 -65 183 -85 c 0
 159 -108 107 -116 86 -95 c 0
 78 -87 79 -75 87 -68 c 0
 111 -44 139 -104 160 -83 c 0
 170 -73 170 -51 170 -23 c 0
 170 141 l 0
 170 163 168 181 158 191 c 0
 141 208 109 197 86 174 c 0
 84 172 82 170 80 167 c 0
 80 50 l 0
 80 33 80 22 87 15 c 0
 91 11 98 9 110 9 c 0
 116 9 l 0
 116 0 l 0
 5 0 l 0
 5 9 l 0
 10 9 l 0
 20 9 27 11 31 15 c 0
 38 22 38 33 38 50 c 0
 38 132 l 0
 38 154 41 184 32 193 c 0
 26 199 16 197 5 193 c 0
 2 202 l 0
 69 229 l 0
 80 229 l 0
 80 182 l 0
 85 188 89 193 94 198 c 0
 127 231 167 240 192 215 c 0
 206 201 212 178 212 145 c 0
 212 5 l 0
EndSplineSet
EndChar

StartChar: hbar
Encoding: 229 295 225
Width: 250
VWidth: 0
Flags: HMW
LayerCount: 2
Fore
SplineSet
5 271 m 0
 155 271 l 0
 155 257 l 0
 5 257 l 0
 5 271 l 0
EndSplineSet
Refer: 103 104 N 1 0 0 1 0 0 0
EndChar

StartChar: lslash
Encoding: 230 322 226
Width: 139
VWidth: 0
Flags: HMW
LayerCount: 2
Fore
SplineSet
91 341 m 0
 91 221 l 0
 129 247 l 0
 129 225 l 0
 91 200 l 0
 91 57 l 0
 91 15 97 9 130 9 c 0
 130 0 l 0
 10 0 l 0
 10 9 l 0
 43 9 49 15 49 57 c 0
 49 161 l 0
 11 136 l 0
 11 157 l 0
 49 182 l 0
 49 266 l 0
 49 311 52 309 10 309 c 0
 10 318 l 0
 91 341 l 0
EndSplineSet
EndChar

StartChar: oslash
Encoding: 231 248 227
Width: 250
VWidth: 0
Flags: HMW
LayerCount: 2
Fore
SplineSet
52 198 m 0
 94 240 148 231 173 222 c 0
 201 276 l 0
 220 276 l 0
 188 214 l 0
 254 177 249 73 203 27 c 0
 161 -15 105 -7 80 4 c 0
 50 -54 l 0
 31 -54 l 0
 65 12 l 0
 1 52 6 152 52 198 c 0
84 200 m 0
 52 168 56 76 81 44 c 0
 161 199 l 0
 141 219 103 219 84 200 c 0
173 185 m 0
 92 28 l 0
 114 7 152 7 171 26 c 0
 203 58 200 144 173 185 c 0
EndSplineSet
EndChar

StartChar: tbar
Encoding: 232 359 228
Width: 139
VWidth: 0
Flags: HMW
LayerCount: 2
Fore
SplineSet
111 152 m 0
 111 135 l 0
 2 87 l 0
 2 104 l 0
 111 152 l 0
EndSplineSet
Refer: 115 116 N 1 0 0 1 0 0 0
EndChar

StartChar: ogonek
Encoding: 242 731 238
Width: 166
VWidth: 0
Flags: HMW
LayerCount: 2
Fore
SplineSet
77 -4 m 0
 62 -14 50 -35 61 -48 c 0
 74 -64 91 -60 113 -40 c 0
 120 -34 126 -46 120 -52 c 0
 100 -72 84 -78 67 -79 c 0
 43 -76 27 -55 35 -31 c 0
 40 -19 47 -13 57 -4 c 0
 77 -4 l 0
EndSplineSet
EndChar

StartChar: florin
Encoding: 251 402 244
Width: 250
VWidth: 0
Flags: HMW
LayerCount: 2
Fore
SplineSet
153 201 m 0
 216 201 l 0
 210 184 l 0
 151 184 l 0
 140 114 142 81 128 20 c 0
 118 -15 107 -60 79 -80 c 0
 55 -100 19 -93 8 -78 c 0
 2 -70 0 -53 7 -43 c 0
 16 -30 35 -30 43 -42 c 0
 47 -48 47 -60 38 -70 c 0
 38 -75 36 -78 41 -79 c 0
 66 -82 83 -55 86 -15 c 0
 93 50 94 113 107 184 c 0
 50 184 l 0
 56 201 l 0
 110 201 l 0
 118 246 124 285 151 312 c 0
 177 341 226 340 240 315 c 0
 246 305 245 295 237 284 c 0
 230 275 218 274 206 282 c 0
 197 291 200 302 208 313 c 0
 208 319 191 325 176 310 c 0
 164 296 156 251 153 201 c 0
EndSplineSet
EndChar

StartChar: questiondown
Encoding: 252 191 245
Width: 222
VWidth: 0
Flags: HMW
LayerCount: 2
Fore
SplineSet
174 -85 m 0
 143 -116 78 -116 44 -82 c 0
 15 -53 14 5 69 65 c 0
 89 87 103 118 105 147 c 0
 113 147 l 0
 113 109 110 89 96 64 c 0
 66 13 56 -51 85 -80 c 0
 104 -99 138 -99 160 -77 c 0
 171 -66 175 -63 158 -40 c 0
 144 -20 157 0 173 0 c 0
 203 0 206 -53 174 -85 c 0
130 180 m 0
 119 169 101 169 90 180 c 0
 78 192 78 210 90 222 c 0
 101 233 119 233 130 222 c 0
 142 210 142 192 130 180 c 0
EndSplineSet
EndChar

StartChar: dotlessi
Encoding: 253 305 246
Width: 139
VWidth: 0
Flags: HMW
LayerCount: 2
Fore
SplineSet
49 57 m 0
 49 151 l 0
 49 196 45 197 10 189 c 0
 10 200 l 0
 37 209 57 216 91 229 c 0
 91 57 l 0
 91 15 97 9 130 9 c 0
 130 0 l 0
 10 0 l 0
 10 9 l 0
 43 9 49 15 49 57 c 0
EndSplineSet
EndChar

StartChar: fi
Encoding: 254 64257 247
Width: 278
VWidth: 0
Flags: HMW
LayerCount: 2
Fore
SplineSet
108 311 m 0
 92 295 93 241 91 224 c 0
 188 224 l 0
 194 224 209 225 227 228 c 0
 227 57 l 0
 227 15 233 9 260 9 c 0
 260 0 l 0
 152 0 l 0
 152 9 l 0
 179 9 185 15 185 57 c 0
 185 149 l 0
 185 208 193 207 140 207 c 0
 91 207 l 0
 91 57 l 0
 91 15 97 9 124 9 c 0
 124 0 l 0
 15 0 l 0
 15 9 l 0
 43 9 49 15 49 57 c 0
 49 207 l 0
 15 207 l 0
 15 224 l 0
 49 224 l 0
 52 238 l 0
 54 251 60 289 85 314 c 0
 120 349 191 345 211 325 c 0
 230 306 219 284 200 284 c 0
 176 284 180 306 170 316 c 0
 156 330 127 330 108 311 c 0
EndSplineSet
EndChar

StartChar: fl
Encoding: 255 64258 248
Width: 278
VWidth: 0
Flags: HMW
LayerCount: 2
Fore
SplineSet
49 224 m 0
 52 238 l 0
 54 259 57 296 83 322 c 0
 107 346 152 343 187 329 c 0
 227 341 l 0
 227 57 l 0
 227 15 233 9 260 9 c 0
 260 0 l 0
 152 0 l 0
 152 9 l 0
 179 9 185 15 185 57 c 0
 185 207 l 0
 91 207 l 0
 91 57 l 0
 91 15 97 9 124 9 c 0
 124 0 l 0
 15 0 l 0
 15 9 l 0
 43 9 49 15 49 57 c 0
 49 207 l 0
 15 207 l 0
 15 224 l 0
 49 224 l 0
93 273 m 0
 91 224 l 0
 185 224 l 0
 185 289 l 0
 157 283 160 306 150 316 c 0
 135 331 93 339 93 273 c 0
EndSplineSet
EndChar

